<svg version="1.1" id="Layer_1" xmlns="http://www.w3.org/2000/svg" xmlns:xlink="http://www.w3.org/1999/xlink" x="0px" y="0px"
	 width="100%" viewBox="0 0 225 225" enable-background="new 0 0 225 225" xml:space="preserve">
<path fill="#FFFFFE" opacity="1.000000" stroke="none" 
	d="
M131.000000,226.000000 
	C87.333336,226.000000 44.166672,226.000000 1.000006,226.000000 
	C1.000004,151.000000 1.000004,76.000015 1.000002,1.000016 
	C75.999992,1.000011 150.999985,1.000011 225.999969,1.000005 
	C225.999985,75.999985 225.999985,150.999969 226.000000,225.999969 
	C194.500000,226.000000 163.000000,226.000000 131.000000,226.000000 
M77.979607,118.798172 
	C78.543221,119.781860 79.106827,120.765549 79.407875,122.511375 
	C78.189491,125.406387 76.417343,128.203186 75.882446,131.219421 
	C75.079140,135.749252 75.143028,140.432861 74.822006,145.815430 
	C73.436470,150.713989 72.088554,155.623596 70.655479,160.508209 
	C69.020660,166.080460 67.614441,171.627060 70.980888,177.011810 
	C70.980888,177.011810 70.831383,177.107437 70.850410,177.677689 
	C71.060738,177.983902 71.271072,178.290115 71.517273,178.894592 
	C71.517273,178.894592 71.739731,179.096466 71.784401,179.707809 
	C72.156792,180.176773 72.529190,180.645737 73.063416,181.661392 
	C73.205559,181.787552 73.347694,181.913712 73.715820,182.636154 
	C74.511353,183.783051 75.306877,184.929932 75.467361,185.161301 
	C74.075554,188.241714 72.980881,190.664490 71.262131,194.468506 
	C79.227646,193.984528 85.562927,193.599594 92.433502,193.267197 
	C92.592056,193.183502 92.750610,193.099792 93.737801,193.088303 
	C99.823906,192.126953 105.939911,190.228470 111.989174,190.421509 
	C121.317726,190.719193 130.600555,192.449524 140.678268,193.869064 
	C142.766495,193.294357 144.854736,192.719650 147.345139,192.828094 
	C150.921661,194.557892 154.456726,194.791031 158.712280,192.456726 
	C156.950623,189.756058 155.392548,187.367523 154.302673,184.643570 
	C154.639069,184.179657 154.975464,183.715744 155.781799,183.084793 
	C156.078613,182.878052 156.231369,182.593887 156.636734,181.757843 
	C157.308426,180.514267 157.980118,179.270676 159.140121,177.550644 
	C159.352661,176.680328 159.565216,175.809998 160.410919,174.418518 
	C160.244247,170.349091 161.011002,165.952118 159.721268,162.276794 
	C156.822556,154.016373 155.411316,145.720566 155.994690,136.179047 
	C155.963104,134.752701 155.931519,133.326355 156.615341,131.638168 
	C161.657059,130.181015 166.698776,128.723846 172.328064,127.096863 
	C169.467804,121.446411 166.813263,116.202370 164.138931,110.185448 
	C165.687653,108.839043 167.022644,106.859917 168.820984,106.252472 
	C178.092316,103.120766 187.507477,100.416779 196.804657,97.357529 
	C198.229904,96.888550 200.288544,95.430199 200.384918,94.288521 
	C201.330109,83.090599 201.921356,71.862785 202.671188,59.702347 
	C195.199829,62.747364 188.665802,65.410355 181.506226,67.763260 
	C177.625031,65.192307 173.433670,62.885956 176.544830,56.916145 
	C176.955261,56.128620 175.230713,54.228436 174.790329,52.188210 
	C176.937881,47.205067 179.270828,42.287083 181.065842,37.180031 
	C181.397507,36.236416 179.049164,33.258621 178.791306,33.361382 
	C173.700348,35.390274 168.735428,37.735474 163.098953,40.221710 
	C160.657379,41.695400 158.215790,43.169086 155.221359,44.829502 
	C154.832642,45.240639 154.443924,45.651775 153.395050,46.209541 
	C149.391953,50.180611 145.388855,54.151684 140.787750,58.459797 
	C139.138214,60.377621 137.488663,62.295444 135.246689,64.319992 
	C134.503052,64.619560 133.759430,64.919128 132.292282,64.977005 
	C127.170631,64.032013 122.048981,63.087025 116.026169,62.014660 
	C111.626740,62.442394 107.227318,62.870132 102.355377,63.385025 
	C102.355377,63.385025 102.033096,63.741398 101.275970,63.774246 
	C99.856300,64.277550 98.436623,64.780846 96.276535,65.234375 
	C95.558342,64.892540 94.651917,64.724243 94.151558,64.181564 
	C89.941879,59.615784 86.128677,54.626369 81.551994,50.474518 
	C77.532928,46.828518 72.683388,44.097965 67.892708,40.337826 
	C63.104961,38.159687 58.420429,35.700954 53.497570,33.890125 
	C49.387157,32.378147 47.484962,34.131771 49.225334,38.257198 
	C52.014484,44.868683 55.766567,51.073944 59.439125,57.970169 
	C64.956635,63.311356 70.474144,68.652542 76.344688,74.541168 
	C77.906853,75.693153 79.469017,76.845139 81.299377,78.324661 
	C81.299377,78.324661 81.676414,78.512917 81.676414,78.512917 
	C81.676414,78.512917 82.082626,78.400871 82.187744,78.679108 
	C82.187744,78.679108 82.452347,78.814911 82.284714,79.639465 
	C80.662750,87.696121 79.029968,95.750671 77.453674,103.816254 
	C77.381752,104.184296 77.818810,104.651810 77.955727,105.829407 
	C75.448639,109.911957 75.428421,114.004692 77.979607,118.798172 
z"/>
<path fill="#F4C406" opacity="1.000000" stroke="none" 
	d="
M182.131790,68.073349 
	C188.665802,65.410355 195.199829,62.747364 202.671188,59.702347 
	C201.921356,71.862785 201.330109,83.090599 200.384918,94.288521 
	C200.288544,95.430199 198.229904,96.888550 196.804657,97.357529 
	C187.507477,100.416779 178.092316,103.120766 168.820984,106.252472 
	C167.022644,106.859917 165.687653,108.839043 163.826691,110.553482 
	C161.896072,111.134254 160.277695,111.346985 158.053894,111.639297 
	C156.446106,108.976952 154.335449,105.481911 152.016953,101.674294 
	C151.441193,99.933846 151.073288,98.505974 150.785660,96.712341 
	C150.552307,95.236351 150.238678,94.126114 149.935699,92.628922 
	C149.567322,90.503616 149.188309,88.765266 148.836700,86.762207 
	C148.815231,86.326942 148.766357,86.156387 148.802231,85.694458 
	C148.931549,85.006248 148.976105,84.609413 149.387711,84.168015 
	C160.547104,78.773422 171.339447,73.423386 182.131790,68.073349 
z"/>
<path fill="#CB8F03" opacity="1.000000" stroke="none" 
	d="
M71.739731,179.096466 
	C71.739731,179.096466 71.517273,178.894592 71.583092,178.437256 
	C71.376396,177.689102 71.103889,177.398270 70.831383,177.107437 
	C70.831383,177.107437 70.980888,177.011810 70.975433,176.680710 
	C70.840668,174.737137 70.063622,172.062332 70.686066,171.682800 
	C75.068542,169.010681 76.016602,164.891403 76.552246,160.343674 
	C76.620003,159.768402 78.098320,159.359299 78.953262,159.265640 
	C78.991364,160.438416 78.999321,161.218765 78.718002,162.274628 
	C77.228889,171.215652 77.896194,171.999786 86.479126,171.998795 
	C88.800529,171.998535 91.278496,172.501923 93.401619,171.851059 
	C95.774437,171.123627 97.825348,169.346207 100.304337,168.016998 
	C102.736107,164.682053 104.879890,161.355850 107.386932,157.951706 
	C109.822052,153.874939 111.893906,149.876114 114.266495,145.296829 
	C114.637756,145.234177 115.740700,144.958023 116.857521,144.879684 
	C118.735252,144.747940 120.621811,144.741898 122.504654,144.682983 
	C122.213104,146.381149 121.624115,148.093674 121.705162,149.773865 
	C121.806862,151.882034 122.457832,153.963715 122.889671,156.371094 
	C122.894722,157.105255 122.881844,157.525177 122.539330,158.020599 
	C121.806763,159.063858 121.403839,160.031631 120.642494,160.933395 
	C119.882469,160.391541 119.426987,159.950775 119.089607,159.433044 
	C118.171028,158.023453 117.302368,156.581329 116.413940,155.152100 
	C115.338661,156.295319 114.051239,157.304855 113.230003,158.608170 
	C111.201523,161.827332 109.594154,165.326157 107.420685,168.435150 
	C105.668663,170.941299 103.336624,173.041977 101.261925,175.322540 
	C104.174301,176.547958 107.086678,177.773361 110.311111,179.135803 
	C112.086220,180.504761 113.549278,181.736664 114.628151,182.971985 
	C112.161842,182.978622 110.079727,182.981873 107.625626,182.986649 
	C106.509720,182.982941 105.765785,182.977707 104.958130,182.621811 
	C102.471077,181.265945 100.115891,179.659790 97.610809,179.375824 
	C91.687218,178.704285 85.616997,179.123596 79.758240,178.168442 
	C76.843750,177.693314 74.913055,177.775528 72.952934,179.775436 
	C72.428635,179.397858 72.084183,179.247162 71.739731,179.096466 
z"/>
<path fill="#F9CA0B" opacity="1.000000" stroke="none" 
	d="
M152.224808,101.986862 
	C154.335449,105.481911 156.446106,108.976952 158.053894,111.639297 
	C160.277695,111.346985 161.896072,111.134254 163.836578,110.939926 
	C166.813263,116.202370 169.467804,121.446411 172.328064,127.096863 
	C166.698776,128.723846 161.657059,130.181015 155.915375,131.702850 
	C152.718414,130.022552 153.144119,124.577545 147.801331,126.074875 
	C147.374573,126.040192 147.202789,126.043091 146.802094,125.766190 
	C141.365982,124.022095 134.273819,114.264755 134.333862,108.092354 
	C135.461105,108.063889 136.212692,108.073868 137.010544,108.396164 
	C137.694778,109.147530 138.332748,109.586586 138.983826,110.382523 
	C139.977066,112.464203 140.957184,114.189003 141.983582,116.287613 
	C142.803864,118.432671 143.312637,120.396820 144.422989,121.923393 
	C145.647064,123.606346 147.423218,124.909439 149.344635,121.966293 
	C150.734406,120.295219 151.782074,118.679604 152.865234,116.791145 
	C152.875854,116.336586 152.850952,116.154854 152.876312,115.734894 
	C152.926559,115.496666 152.987671,115.013557 153.174133,114.929718 
	C153.235550,114.571297 153.110489,114.296707 152.958344,113.775848 
	C152.931229,113.529572 152.857956,113.039482 152.919907,112.625816 
	C152.674744,109.837799 152.367630,107.463448 152.091217,104.738441 
	C152.065674,103.924118 152.009399,103.460449 151.995850,102.737518 
	C152.100662,102.314461 152.162735,102.150658 152.224808,101.986862 
M155.589050,111.517288 
	C155.589050,111.517288 155.477066,111.584755 155.589050,111.517288 
z"/>
<path fill="#FBF8EF" opacity="1.000000" stroke="none" 
	d="
M181.819000,67.918304 
	C171.339447,73.423386 160.547104,78.773422 149.381897,83.825539 
	C148.394562,82.635628 147.780121,81.743637 147.074097,80.600929 
	C146.895218,80.194916 146.807907,80.039627 146.837189,79.683853 
	C147.155273,79.234108 147.257431,78.949249 147.578491,78.515968 
	C149.332550,77.390121 150.768387,76.377098 152.534195,75.243332 
	C157.029617,71.447281 161.195099,67.771980 165.643692,63.954201 
	C167.342545,61.924622 168.758270,60.037529 170.465881,58.014244 
	C172.003479,56.199890 173.249207,54.521725 174.494934,52.843559 
	C175.230713,54.228436 176.955261,56.128620 176.544830,56.916145 
	C173.433670,62.885956 177.625031,65.192307 181.819000,67.918304 
z"/>
<path fill="#FBE362" opacity="1.000000" stroke="none" 
	d="
M147.031006,126.045990 
	C147.202789,126.043091 147.374573,126.040192 147.827545,126.462357 
	C149.875076,131.567535 148.381104,137.754318 154.221039,140.841949 
	C154.913055,139.329071 155.437393,138.182755 155.961746,137.036438 
	C155.411316,145.720566 156.822556,154.016373 159.721268,162.276794 
	C161.011002,165.952118 160.244247,170.349091 159.860870,174.440521 
	C158.223022,173.626846 157.135193,172.791153 156.038727,171.966614 
	C156.030090,171.977768 156.038589,171.961823 156.000443,171.605713 
	C153.962921,167.837402 151.963562,164.425232 149.954315,160.721008 
	C149.696899,159.922897 149.449326,159.416794 149.198517,158.621094 
	C149.214920,157.944046 149.234573,157.556610 149.486282,156.910843 
	C149.860504,155.744415 150.002670,154.836319 150.178619,153.717499 
	C150.212372,153.506775 150.245682,153.081238 150.479797,152.805237 
	C150.781082,151.724701 151.087631,150.850113 150.876083,150.127106 
	C149.619736,145.833389 148.292969,141.557938 146.853043,137.322861 
	C146.641479,136.700577 145.701172,136.326080 145.105652,135.530365 
	C145.096008,134.815399 145.078781,134.406982 144.980728,133.758255 
	C144.633163,133.323883 144.366425,133.129822 144.056046,132.934113 
	C144.012405,132.932480 144.099121,132.911652 144.235779,132.640259 
	C144.700623,131.629333 145.028809,130.889816 145.521301,129.955750 
	C146.134079,128.522812 146.582550,127.284401 147.031006,126.045990 
z"/>
<path fill="#C68D03" opacity="1.000000" stroke="none" 
	d="
M81.031189,77.997124 
	C79.469017,76.845139 77.906853,75.693153 76.179092,73.897156 
	C76.201874,72.016258 76.390244,70.779366 76.425438,70.548279 
	C74.164093,68.589539 72.195030,67.422684 70.983116,65.717659 
	C68.734093,62.553539 66.480820,59.247250 65.099693,55.664623 
	C64.239700,53.433796 64.976868,50.587261 65.342621,48.044952 
	C72.792839,54.715332 79.897667,61.357811 86.760017,68.278908 
	C85.883644,68.723167 84.945679,68.683830 84.670860,69.091522 
	C83.709610,70.517532 82.977226,72.097824 82.157898,73.619492 
	C83.670692,73.692352 85.188522,73.868622 86.694206,73.795280 
	C87.469162,73.757530 88.222450,73.275169 88.992195,73.345970 
	C89.017769,74.168793 89.036674,74.639374 88.840500,75.371323 
	C86.567719,76.693443 84.510033,77.754173 82.452347,78.814911 
	C82.452347,78.814911 82.187744,78.679108 81.993393,78.402222 
	C81.560822,77.976562 81.304871,77.933830 81.031189,77.997124 
z"/>
<path fill="#904604" opacity="1.000000" stroke="none" 
	d="
M92.909164,193.016098 
	C92.750610,193.099792 92.592056,193.183502 91.826401,193.152328 
	C87.588356,190.685257 83.957420,188.333054 80.337173,185.987778 
	C89.413399,185.987778 98.649170,186.079224 107.881775,185.947983 
	C112.295540,185.885254 116.703308,185.400116 121.495834,185.146072 
	C124.252037,185.445633 126.626198,185.705399 129.376099,185.989212 
	C131.832626,185.998917 133.913391,185.984604 136.432312,185.987457 
	C139.595993,185.701370 142.321533,185.398148 145.358673,185.084778 
	C146.086487,185.070801 146.502670,185.066971 146.907089,185.397171 
	C145.720047,187.708054 144.089294,189.679199 146.777359,191.835388 
	C146.734024,191.965958 146.942963,192.144943 146.942963,192.144943 
	C144.854736,192.719650 142.766495,193.294357 140.019562,193.560242 
	C138.887909,191.888077 138.414932,190.524750 137.828354,188.833954 
	C122.573357,188.833954 107.288551,188.833954 91.992104,188.833954 
	C92.366806,190.542725 92.637985,191.779404 92.909164,193.016098 
z"/>
<path fill="#3D3F3C" opacity="1.000000" stroke="none" 
	d="
M59.111664,57.450897 
	C55.766567,51.073944 52.014484,44.868683 49.225334,38.257198 
	C47.484962,34.131771 49.387157,32.378147 53.497570,33.890125 
	C58.420429,35.700954 63.104961,38.159687 67.946152,40.911659 
	C67.706078,41.704525 67.412560,41.923557 66.746613,42.076538 
	C64.900978,43.319099 63.427773,44.627705 61.680859,46.198864 
	C60.641991,50.124577 59.876827,53.787735 59.111664,57.450897 
z"/>
<path fill="#525651" opacity="1.000000" stroke="none" 
	d="
M174.642639,52.515884 
	C173.249207,54.521725 172.003479,56.199890 170.150452,57.813931 
	C169.627686,54.171471 169.712204,50.593128 169.739563,46.701366 
	C168.467407,45.562622 167.252411,44.737301 165.952179,43.683098 
	C165.679337,43.156212 165.410233,42.990658 164.987366,42.638668 
	C164.525024,41.551968 164.134949,40.784161 163.744888,40.016350 
	C168.735428,37.735474 173.700348,35.390274 178.791306,33.361382 
	C179.049164,33.258621 181.397507,36.236416 181.065842,37.180031 
	C179.270828,42.287083 176.937881,47.205067 174.642639,52.515884 
z"/>
<path fill="#DFAF08" opacity="1.000000" stroke="none" 
	d="
M61.954559,45.936310 
	C63.427773,44.627705 64.900978,43.319099 66.896805,42.355740 
	C73.576721,49.187317 79.524269,55.893555 85.988037,62.058563 
	C88.823914,64.763367 92.337639,67.699799 97.016953,65.284149 
	C98.436623,64.780846 99.856300,64.277550 101.540283,64.095398 
	C102.545029,65.654518 103.126099,67.032356 104.062035,68.098724 
	C105.587006,69.836227 107.343750,71.370316 108.584671,72.992813 
	C105.892967,72.391304 103.628181,71.750870 101.343452,71.192009 
	C98.234222,70.431465 95.109741,69.733223 91.617554,69.005630 
	C90.494408,69.003616 89.745514,69.004219 88.831070,68.758224 
	C88.111183,68.341179 87.556839,68.170731 87.002502,68.000290 
	C79.897667,61.357811 72.792839,54.715332 65.192200,47.879280 
	C65.208992,47.240120 65.721588,46.794537 66.708885,45.936310 
	C64.768509,45.936310 63.361534,45.936310 61.954559,45.936310 
z"/>
<path fill="#B46F09" opacity="1.000000" stroke="none" 
	d="
M121.113792,185.106293 
	C116.703308,185.400116 112.295540,185.885254 107.881775,185.947983 
	C98.649170,186.079224 89.413399,185.987778 80.337173,185.987778 
	C83.957420,188.333054 87.588356,190.685257 91.558746,193.126068 
	C85.562927,193.599594 79.227646,193.984528 71.262131,194.468506 
	C72.980881,190.664490 74.075554,188.241714 75.467361,185.161301 
	C75.306877,184.929932 74.511353,183.783051 73.945587,182.339722 
	C84.457520,182.353012 94.739685,182.662735 105.021858,182.972473 
	C105.765785,182.977707 106.509720,182.982941 107.887451,183.275024 
	C112.718765,184.076691 116.916283,184.591492 121.113792,185.106293 
z"/>
<path fill="#D3AC37" opacity="1.000000" stroke="none" 
	d="
M82.368530,79.227188 
	C84.510033,77.754173 86.567719,76.693443 89.159599,75.352936 
	C90.121201,75.074867 90.548615,75.076584 91.026077,75.450989 
	C93.688515,79.632980 90.155731,82.049416 88.997696,85.001793 
	C89.000000,85.000000 89.003487,84.995430 88.723938,85.232788 
	C87.261650,91.768417 86.078918,98.066681 84.546814,104.268394 
	C83.476776,104.172035 82.756104,104.172226 81.700592,104.258751 
	C80.250107,104.587723 79.134453,104.830360 78.018806,105.072998 
	C77.818810,104.651810 77.381752,104.184296 77.453674,103.816254 
	C79.029968,95.750671 80.662750,87.696121 82.368530,79.227188 
z"/>
<path fill="#F8DF5C" opacity="1.000000" stroke="none" 
	d="
M96.646744,65.259262 
	C92.337639,67.699799 88.823914,64.763367 85.988037,62.058563 
	C79.524269,55.893555 73.576721,49.187317 67.269234,42.421791 
	C67.412560,41.923557 67.706078,41.704525 68.100128,41.224289 
	C72.683388,44.097965 77.532928,46.828518 81.551994,50.474518 
	C86.128677,54.626369 89.941879,59.615784 94.151558,64.181564 
	C94.651917,64.724243 95.558342,64.892540 96.646744,65.259262 
z"/>
<path fill="#E2B102" opacity="1.000000" stroke="none" 
	d="
M109.002693,72.990234 
	C107.343750,71.370316 105.587006,69.836227 104.062035,68.098724 
	C103.126099,67.032356 102.545029,65.654518 101.918854,64.078972 
	C102.033096,63.741398 102.355377,63.385025 102.743927,63.712589 
	C105.325722,65.404152 107.480232,66.836151 109.722748,68.113632 
	C112.120346,69.479454 114.600945,70.699562 117.152321,72.193298 
	C117.453491,72.665596 117.706589,72.844505 118.044548,73.290062 
	C125.512962,80.287636 126.990341,88.850342 125.550629,98.170769 
	C123.762947,98.070419 122.385857,98.017067 121.238213,97.664726 
	C121.908005,96.885216 122.780159,96.344482 122.722824,95.933380 
	C122.050461,91.112244 122.672379,85.206810 120.060532,81.813950 
	C117.444550,78.415710 114.952118,72.961052 108.999489,73.000496 
	C109.000198,72.999466 109.002693,72.990234 109.002693,72.990234 
z"/>
<path fill="#D2A736" opacity="1.000000" stroke="none" 
	d="
M74.838181,145.051086 
	C75.143028,140.432861 75.079140,135.749252 75.882446,131.219421 
	C76.417343,128.203186 78.189491,125.406387 79.783852,122.158493 
	C80.475098,121.900047 80.797096,121.955246 81.313515,122.226715 
	C82.307076,122.736702 83.112946,122.991188 83.932541,123.587364 
	C83.950233,124.612251 83.954185,125.295441 83.951736,126.298416 
	C83.952293,127.044594 83.959259,127.470993 83.610580,127.921806 
	C82.499001,128.631607 81.743065,129.316971 80.992706,130.463181 
	C79.990837,137.284180 78.983376,143.644348 77.653183,149.956924 
	C76.499702,148.289932 75.668945,146.670502 74.838181,145.051086 
z"/>
<path fill="#CD9C0C" opacity="1.000000" stroke="none" 
	d="
M61.680855,46.198860 
	C63.361534,45.936310 64.768509,45.936310 66.708885,45.936310 
	C65.721588,46.794537 65.208992,47.240120 64.846809,47.851379 
	C64.976868,50.587261 64.239700,53.433796 65.099693,55.664623 
	C66.480820,59.247250 68.734093,62.553539 70.983116,65.717659 
	C72.195030,67.422684 74.164093,68.589539 76.425438,70.548279 
	C76.390244,70.779366 76.201874,72.016258 76.002579,73.623444 
	C70.474144,68.652542 64.956635,63.311356 59.275394,57.710533 
	C59.876827,53.787735 60.641991,50.124577 61.680855,46.198860 
z"/>
<path fill="#CEA639" opacity="1.000000" stroke="none" 
	d="
M74.830093,145.433258 
	C75.668945,146.670502 76.499702,148.289932 77.660889,150.322922 
	C78.309853,152.127640 78.628387,153.518799 78.957054,154.924606 
	C78.967186,154.939270 78.960808,154.967819 78.785896,155.059525 
	C78.541313,155.261917 78.387207,155.412140 78.417191,155.476166 
	C78.523109,155.702393 78.692055,155.899124 78.854996,156.420792 
	C78.918732,157.150833 78.964584,157.567093 78.982719,158.205246 
	C78.955002,158.427124 78.923119,158.873199 78.923119,158.873199 
	C78.098320,159.359299 76.620003,159.768402 76.552246,160.343674 
	C76.016602,164.891403 75.068542,169.010681 70.686066,171.682800 
	C70.063622,172.062332 70.840668,174.737137 70.910172,176.740829 
	C67.614441,171.627060 69.020660,166.080460 70.655479,160.508209 
	C72.088554,155.623596 73.436470,150.713989 74.830093,145.433258 
z"/>
<path fill="#D7A409" opacity="1.000000" stroke="none" 
	d="
M141.385773,58.122757 
	C145.388855,54.151684 149.391953,50.180611 153.736679,46.144653 
	C154.078308,46.079769 154.098923,46.100651 154.028625,46.436836 
	C152.306763,52.848175 150.655228,58.923325 148.725372,65.248093 
	C148.300079,66.998375 148.153091,68.499031 147.999023,70.247818 
	C147.991913,70.495934 147.979416,70.992210 147.660492,71.036812 
	C146.902023,71.725502 146.462463,72.369591 146.010712,73.301369 
	C145.982315,73.780334 145.966080,73.971619 145.661987,74.009583 
	C144.252472,72.902252 143.130798,71.948235 142.422134,70.978058 
	C146.699722,67.908798 145.840500,60.297443 141.385773,58.122757 
z"/>
<path fill="#C37E02" opacity="1.000000" stroke="none" 
	d="
M104.958130,182.621811 
	C94.739685,182.662735 84.457520,182.353012 73.832588,182.041565 
	C73.347694,181.913712 73.205559,181.787552 73.057693,181.113632 
	C73.078918,180.378036 73.105850,180.190186 73.132790,180.002319 
	C74.913055,177.775528 76.843750,177.693314 79.758240,178.168442 
	C85.616997,179.123596 91.687218,178.704285 97.610809,179.375824 
	C100.115891,179.659790 102.471077,181.265945 104.958130,182.621811 
z"/>
<path fill="#611E07" opacity="1.000000" stroke="none" 
	d="
M93.323486,193.052200 
	C92.637985,191.779404 92.366806,190.542725 91.992104,188.833954 
	C107.288551,188.833954 122.573357,188.833954 137.828354,188.833954 
	C138.414932,190.524750 138.887909,191.888077 139.631821,193.411774 
	C130.600555,192.449524 121.317726,190.719193 111.989174,190.421509 
	C105.939911,190.228470 99.823906,192.126953 93.323486,193.052200 
z"/>
<path fill="#F0BA03" opacity="1.000000" stroke="none" 
	d="
M155.311844,183.251831 
	C154.975464,183.715744 154.639069,184.179657 153.852158,184.786743 
	C153.401642,184.929916 152.966873,184.899017 152.978973,184.585419 
	C152.986511,183.851273 152.981949,183.430740 152.949310,182.658478 
	C150.148560,178.667526 147.944321,174.308701 144.466873,171.561569 
	C139.532150,167.663223 139.227280,165.921829 145.002335,162.413605 
	C145.108398,170.460571 151.862122,173.283005 156.327606,178.007050 
	C157.324005,178.016129 157.987900,178.021622 158.651810,178.027100 
	C157.980118,179.270676 157.308426,180.514267 156.175980,182.043839 
	C155.580765,182.637161 155.446304,182.944504 155.311844,183.251831 
z"/>
<path fill="#CE9608" opacity="1.000000" stroke="none" 
	d="
M141.086761,58.291279 
	C145.840500,60.297443 146.699722,67.908798 142.154266,70.781158 
	C139.595306,68.471367 137.717224,66.342323 135.839127,64.213272 
	C137.488663,62.295444 139.138214,60.377621 141.086761,58.291279 
z"/>
<path fill="#E5B520" opacity="1.000000" stroke="none" 
	d="
M152.966873,184.899017 
	C152.966873,184.899017 153.401642,184.929916 153.618073,184.954453 
	C155.392548,187.367523 156.950623,189.756058 158.712280,192.456726 
	C154.456726,194.791031 150.921661,194.557892 147.144043,192.486511 
	C146.942963,192.144943 146.734024,191.965958 147.124756,191.737015 
	C148.710693,189.349136 149.905869,187.190201 151.413361,185.029144 
	C152.139404,184.984360 152.553131,184.941696 152.966873,184.899017 
z"/>
<path fill="#F2C30A" opacity="1.000000" stroke="none" 
	d="
M117.045319,71.983269 
	C114.600945,70.699562 112.120346,69.479454 109.722748,68.113632 
	C107.480232,66.836151 105.325722,65.404152 102.980186,63.669014 
	C107.227318,62.870132 111.626740,62.442394 116.342819,62.402916 
	C116.610352,65.198685 113.404655,67.774933 117.062805,70.217377 
	C117.081589,70.449463 117.196114,70.900452 117.152985,71.170403 
	C117.088348,71.621330 117.066833,71.802299 117.045319,71.983269 
z"/>
<path fill="#FDEB90" opacity="1.000000" stroke="none" 
	d="
M155.978210,136.607742 
	C155.437393,138.182755 154.913055,139.329071 154.221039,140.841949 
	C148.381104,137.754318 149.875076,131.567535 148.082504,126.499939 
	C153.144119,124.577545 152.718414,130.022552 155.557678,131.833771 
	C155.931519,133.326355 155.963104,134.752701 155.978210,136.607742 
z"/>
<path fill="#F8D92B" opacity="1.000000" stroke="none" 
	d="
M135.542908,64.266632 
	C137.717224,66.342323 139.595306,68.471367 141.741272,70.797318 
	C143.130798,71.948235 144.252472,72.902252 145.668610,74.321671 
	C145.957703,75.206787 145.952332,75.626511 145.535767,76.047211 
	C143.746368,76.037231 142.368149,76.026260 140.775391,75.976067 
	C140.560852,75.936836 140.127029,75.891464 140.056122,75.563362 
	C137.987991,73.495033 135.990753,71.754807 133.735535,69.820892 
	C133.276978,68.807076 133.076401,67.986961 132.911224,66.843063 
	C132.969681,66.085754 132.992737,65.652222 133.015793,65.218689 
	C133.759430,64.919128 134.503052,64.619560 135.542908,64.266632 
z"/>
<path fill="#F7D83A" opacity="1.000000" stroke="none" 
	d="
M132.654037,65.097847 
	C132.992737,65.652222 132.969681,66.085754 132.585815,66.795197 
	C131.163574,66.408516 130.102112,65.745934 128.632660,65.056473 
	C122.855202,62.975693 119.400719,65.242142 117.044014,69.985298 
	C113.404655,67.774933 116.610352,65.198685 116.793396,62.466599 
	C122.048981,63.087025 127.170631,64.032013 132.654037,65.097847 
z"/>
<path fill="#DFB714" opacity="1.000000" stroke="none" 
	d="
M163.421921,40.119034 
	C164.134949,40.784161 164.525024,41.551968 164.705978,42.877445 
	C164.157227,47.553169 162.547592,49.859272 157.979828,47.666370 
	C157.299316,46.594051 156.646057,45.839226 155.935638,44.975235 
	C155.878479,44.866074 155.774216,44.642773 155.774216,44.642773 
	C158.215790,43.169086 160.657379,41.695400 163.421921,40.119034 
z"/>
<path fill="#CF572D" opacity="1.000000" stroke="none" 
	d="
M77.987267,105.451202 
	C79.134453,104.830360 80.250107,104.587723 81.688980,104.658340 
	C82.022758,106.321609 82.033295,107.671631 82.033081,109.351044 
	C82.014587,110.120331 82.006859,110.560219 81.735413,111.207939 
	C80.984360,112.613739 80.497032,113.811699 80.005127,115.005081 
	C80.000549,115.000504 79.991386,114.994438 79.939789,114.666016 
	C79.284241,114.436890 78.200172,114.438393 78.156685,114.651871 
	C77.928040,115.774292 77.962379,116.950279 77.905396,118.107674 
	C75.428421,114.004692 75.448639,109.911957 77.987267,105.451202 
z"/>
<path fill="#CC481B" opacity="1.000000" stroke="none" 
	d="
M77.942505,118.452927 
	C77.962379,116.950279 77.928040,115.774292 78.156685,114.651871 
	C78.200172,114.438393 79.284241,114.436890 79.703903,114.834274 
	C79.484970,115.871742 79.450317,116.412537 79.415665,116.953323 
	C79.573364,116.956200 79.731064,116.959076 79.888763,116.961960 
	C79.929077,116.311195 79.969391,115.660431 80.009697,115.009666 
	C80.497032,113.811699 80.984360,112.613739 82.012543,111.409775 
	C82.102676,114.910881 81.651962,118.417984 81.186508,121.943626 
	C81.171783,121.962158 81.125816,121.971207 81.125816,121.971207 
	C80.797096,121.955246 80.475098,121.900047 79.915131,121.777420 
	C79.106827,120.765549 78.543221,119.781860 77.942505,118.452927 
z"/>
<path fill="#F9CA0B" opacity="1.000000" stroke="none" 
	d="
M158.895966,177.788879 
	C157.987900,178.021622 157.324005,178.016129 156.328842,177.575912 
	C156.014175,175.412598 156.030777,173.684036 156.047363,171.955460 
	C157.135193,172.791153 158.223022,173.626846 159.544296,174.701111 
	C159.565216,175.809998 159.352661,176.680328 158.895966,177.788879 
z"/>
<path fill="#D7A409" opacity="1.000000" stroke="none" 
	d="
M154.066757,46.071342 
	C154.443924,45.651775 154.832642,45.240639 155.497787,44.736137 
	C155.774216,44.642773 155.878479,44.866074 155.769531,45.199306 
	C155.140015,45.721909 154.619476,45.911278 154.098923,46.100647 
	C154.098923,46.100651 154.078308,46.079769 154.066757,46.071342 
z"/>
<path fill="#CEA639" opacity="1.000000" stroke="none" 
	d="
M72.952934,179.775436 
	C73.105850,180.190186 73.078918,180.378036 72.976776,180.840286 
	C72.529190,180.645737 72.156792,180.176773 71.762070,179.402130 
	C72.084183,179.247162 72.428635,179.397858 72.952934,179.775436 
z"/>
<path fill="#D3AC37" opacity="1.000000" stroke="none" 
	d="
M81.165283,78.160889 
	C81.304871,77.933830 81.560822,77.976562 81.940842,78.263107 
	C82.082626,78.400871 81.676414,78.512917 81.676414,78.512917 
	C81.676414,78.512917 81.299377,78.324661 81.165283,78.160889 
z"/>
<path fill="#FBE362" opacity="1.000000" stroke="none" 
	d="
M155.546814,183.168304 
	C155.446304,182.944504 155.580765,182.637161 155.977631,182.281067 
	C156.231369,182.593887 156.078613,182.878052 155.546814,183.168304 
z"/>
<path fill="#CEA639" opacity="1.000000" stroke="none" 
	d="
M70.840897,177.392563 
	C71.103889,177.398270 71.376396,177.689102 71.565155,178.288132 
	C71.271072,178.290115 71.060738,177.983902 70.840897,177.392563 
z"/>
<path fill="#FDEB90" opacity="1.000000" stroke="none" 
	d="
M140.127029,75.891464 
	C140.127029,75.891464 140.560852,75.936836 140.821304,76.312088 
	C142.382065,77.461296 143.682373,78.235260 145.014618,79.221550 
	C145.046539,79.433876 145.117203,79.857437 145.114761,80.173622 
	C145.796768,80.610420 146.481216,80.731033 147.165665,80.851646 
	C147.780121,81.743637 148.394562,82.635628 149.014832,83.870102 
	C148.976105,84.609413 148.931549,85.006248 148.673691,85.807091 
	C148.576691,86.483040 148.692993,86.754982 148.809311,87.026917 
	C149.188309,88.765266 149.567322,90.503616 149.688049,92.847527 
	C149.854980,94.661423 150.280182,95.869759 150.705383,97.078094 
	C151.073288,98.505974 151.441193,99.933846 152.016953,101.674294 
	C152.162735,102.150658 152.100662,102.314461 151.760269,102.906693 
	C151.337814,103.885490 151.193665,104.435860 150.724579,104.889771 
	C148.954285,104.186043 147.508942,103.578766 146.006348,102.638794 
	C145.595947,99.870872 145.242783,97.435631 144.878326,94.631317 
	C142.884094,90.536980 140.901138,86.811714 138.945084,82.702911 
	C137.827988,80.087013 136.684021,77.854668 135.305817,75.165245 
	C137.126877,75.439552 138.626953,75.665512 140.127029,75.891464 
z"/>
<path fill="#FDE76B" opacity="1.000000" stroke="none" 
	d="
M150.785660,96.712341 
	C150.280182,95.869759 149.854980,94.661423 149.677414,93.234482 
	C150.238678,94.126114 150.552307,95.236351 150.785660,96.712341 
z"/>
<path fill="#FDE76B" opacity="1.000000" stroke="none" 
	d="
M148.836700,86.762207 
	C148.692993,86.754982 148.576691,86.483040 148.588928,86.098465 
	C148.766357,86.156387 148.815231,86.326942 148.836700,86.762207 
z"/>
<path fill="#C17A02" opacity="1.000000" stroke="none" 
	d="
M122.871750,156.056824 
	C122.457832,153.963715 121.806862,151.882034 121.705162,149.773865 
	C121.624115,148.093674 122.213104,146.381149 122.504654,144.682983 
	C120.621811,144.741898 118.735252,144.747940 116.857521,144.879684 
	C115.740700,144.958023 114.637756,145.234177 114.266495,145.296829 
	C111.893906,149.876114 109.822052,153.874939 107.378159,157.612579 
	C107.003036,156.899918 106.999947,156.448441 107.006775,155.584885 
	C107.342064,152.115173 107.667419,149.057510 108.302902,145.840240 
	C108.630836,143.924240 109.106064,142.006958 108.558220,140.449570 
	C107.755547,138.167755 106.220245,136.143646 105.388351,134.012909 
	C107.953133,134.722290 110.160881,135.338943 112.293388,136.152771 
	C117.219254,138.032623 125.521980,136.034500 129.354156,132.030670 
	C130.120499,132.020233 130.558731,132.017792 131.231293,132.284943 
	C132.644699,132.704453 133.823761,132.854355 134.877106,133.279541 
	C134.166245,134.368713 133.581100,135.182587 132.691925,136.154388 
	C129.894470,141.202072 127.401031,146.091843 124.597824,151.163086 
	C123.815964,152.915314 123.343857,154.486069 122.871750,156.056824 
z"/>
<path fill="#D19801" opacity="1.000000" stroke="none" 
	d="
M109.999046,178.998779 
	C107.086678,177.773361 104.174301,176.547958 101.261925,175.322540 
	C103.336624,173.041977 105.668663,170.941299 107.420685,168.435150 
	C109.594154,165.326157 111.201523,161.827332 113.230003,158.608170 
	C114.051239,157.304855 115.338661,156.295319 116.413940,155.152100 
	C117.302368,156.581329 118.171028,158.023453 119.089607,159.433044 
	C119.426987,159.950775 119.882469,160.391541 120.646034,161.260925 
	C121.011147,162.091156 121.014290,162.527878 121.011238,163.304047 
	C121.003662,164.095261 121.002289,164.547028 120.589706,164.998962 
	C117.802788,166.246399 114.586258,166.934006 113.281548,168.894165 
	C111.903511,170.964493 112.347801,174.247787 111.675873,177.042786 
	C110.903503,177.722488 110.451271,178.360641 109.999046,178.998779 
z"/>
<path fill="#D49504" opacity="1.000000" stroke="none" 
	d="
M110.311111,179.135803 
	C110.451271,178.360641 110.903503,177.722488 112.070969,177.049484 
	C118.871292,179.141434 124.897171,180.452560 131.547089,179.219910 
	C135.168060,178.548706 140.121048,177.392181 141.538559,182.991104 
	C132.383759,182.988297 123.698051,182.978439 115.012337,182.968582 
	C113.549278,181.736664 112.086220,180.504761 110.311111,179.135803 
z"/>
<path fill="#C08601" opacity="1.000000" stroke="none" 
	d="
M100.016350,168.025726 
	C97.825348,169.346207 95.774437,171.123627 93.401619,171.851059 
	C91.278496,172.501923 88.800529,171.998535 86.479126,171.998795 
	C77.896194,171.999786 77.228889,171.215652 78.990410,162.474121 
	C81.835327,165.726578 83.282478,170.464615 89.333153,168.004120 
	C90.109367,168.007416 90.552902,168.009018 91.262344,168.292267 
	C94.357613,168.391174 97.186981,168.208450 100.016350,168.025726 
z"/>
<path fill="#C37E02" opacity="1.000000" stroke="none" 
	d="
M114.628151,182.971985 
	C123.698051,182.978439 132.383759,182.988297 141.898376,183.002090 
	C143.500519,183.702332 144.273788,184.398621 145.047058,185.094910 
	C142.321533,185.398148 139.595993,185.701370 136.175751,185.710480 
	C133.320801,185.599289 131.160568,185.782227 129.000351,185.965179 
	C126.626198,185.705399 124.252037,185.445633 121.495834,185.146072 
	C116.916283,184.591492 112.718765,184.076691 108.259430,183.273499 
	C110.079727,182.981873 112.161842,182.978622 114.628151,182.971985 
z"/>
<path fill="#B87402" opacity="1.000000" stroke="none" 
	d="
M100.304337,168.016998 
	C97.186981,168.208450 94.357613,168.391174 91.392258,167.987274 
	C91.521996,166.570450 91.787720,165.740280 92.424408,164.937027 
	C94.533607,164.653442 96.271828,164.342972 98.353622,164.015457 
	C99.810349,163.041290 100.923500,162.084152 102.341949,161.071548 
	C103.414780,159.350433 104.182304,157.684784 105.291000,156.013519 
	C106.087067,156.004242 106.541962,156.000595 106.996857,155.996948 
	C106.999947,156.448441 107.003036,156.899918 107.014900,157.690521 
	C104.879890,161.355850 102.736107,164.682053 100.304337,168.016998 
z"/>
<path fill="#B87402" opacity="1.000000" stroke="none" 
	d="
M89.000473,168.002441 
	C83.282478,170.464615 81.835327,165.726578 79.279686,162.198593 
	C78.999321,161.218765 78.991364,160.438416 78.953262,159.265640 
	C78.923119,158.873199 78.955002,158.427124 79.361664,158.209106 
	C80.526878,157.974899 81.285431,157.958725 82.023590,157.969757 
	C82.003204,157.996948 82.054718,157.952469 82.076462,158.340363 
	C82.868477,161.254257 82.896835,164.181519 86.689110,164.616684 
	C87.577370,164.718613 88.236122,166.820633 89.000473,168.002441 
z"/>
<path fill="#AB5A02" opacity="1.000000" stroke="none" 
	d="
M122.889671,156.371094 
	C123.343857,154.486069 123.815964,152.915314 124.964691,151.176224 
	C126.127991,151.028381 126.614670,151.048874 126.963043,151.352142 
	C126.671463,155.229645 125.038597,158.936996 127.785324,162.352203 
	C127.982155,162.596954 126.641098,164.078583 125.973526,164.632568 
	C124.910957,162.168381 123.889961,160.056732 122.868965,157.945084 
	C122.881844,157.525177 122.894722,157.105255 122.889671,156.371094 
z"/>
<path fill="#C17A02" opacity="1.000000" stroke="none" 
	d="
M122.539330,158.020599 
	C123.889961,160.056732 124.910957,162.168381 125.628380,164.605011 
	C123.889015,164.274857 122.453224,163.619720 121.017441,162.964584 
	C121.014290,162.527878 121.011147,162.091156 121.004456,161.326920 
	C121.403839,160.031631 121.806763,159.063858 122.539330,158.020599 
z"/>
<path fill="#F0BE04" opacity="1.000000" stroke="none" 
	d="
M146.802094,125.766190 
	C146.582550,127.284401 146.134079,128.522812 145.173737,129.886658 
	C143.441025,129.673553 142.220215,129.335022 140.666290,128.998199 
	C139.889038,129.000351 139.444901,129.000793 138.667206,128.997070 
	C137.889343,128.992722 137.445023,128.992523 136.943329,128.634644 
	C134.923584,127.516632 132.961197,126.756332 130.946686,125.583405 
	C130.596512,122.056816 130.460526,118.914665 129.925995,115.841835 
	C129.690323,114.487076 128.645142,113.273148 128.066986,111.716454 
	C126.755859,109.273277 125.345222,107.108932 124.346756,104.942871 
	C126.130615,104.998207 127.502319,105.055252 128.954834,105.421623 
	C129.699432,106.137894 130.363235,106.544838 131.387299,106.973755 
	C132.464890,107.047775 133.182205,107.099815 133.911087,107.396774 
	C133.922668,107.641701 133.958206,108.130806 133.958206,108.130806 
	C134.273819,114.264755 141.365982,124.022095 146.802094,125.766190 
z"/>
<path fill="#FB7A51" opacity="1.000000" stroke="none" 
	d="
M152.987671,115.013557 
	C152.987671,115.013557 152.926559,115.496666 152.686646,115.859573 
	C152.217621,116.434441 152.055252,116.688980 151.619812,117.021393 
	C150.198456,117.365479 149.116913,117.674286 148.032532,117.650230 
	C148.036621,116.873596 148.043549,116.429832 148.287415,115.790695 
	C148.164383,113.594513 148.756973,110.655350 144.650726,111.999710 
	C143.855179,111.980019 143.400574,111.969795 142.921204,111.630096 
	C142.830383,110.864716 142.764313,110.428810 142.777893,109.747238 
	C142.903259,109.335587 142.948990,109.169601 143.268280,108.825134 
	C144.044144,107.436790 144.546463,106.226921 145.387558,105.065247 
	C148.103531,107.755455 150.480743,110.397469 152.857956,113.039482 
	C152.857956,113.039482 152.931229,113.529572 152.958710,114.023643 
	C152.986206,114.517715 152.987671,115.013557 152.987671,115.013557 
z"/>
<path fill="#F2602C" opacity="1.000000" stroke="none" 
	d="
M148.050476,115.986061 
	C148.043549,116.429832 148.036621,116.873596 148.051086,117.999420 
	C148.382507,119.794899 148.692520,120.908325 149.002548,122.021751 
	C147.423218,124.909439 145.647064,123.606346 144.422989,121.923393 
	C143.312637,120.396820 142.803864,118.432671 142.032974,115.951004 
	C142.339355,114.146904 142.642654,113.053246 142.945953,111.959579 
	C143.400574,111.969795 143.855179,111.980019 144.522583,112.309067 
	C143.451935,116.105125 145.973877,115.825783 148.050476,115.986061 
z"/>
<path fill="#F79961" opacity="1.000000" stroke="none" 
	d="
M152.919907,112.625816 
	C150.480743,110.397469 148.103531,107.755455 145.397552,104.759758 
	C145.400375,103.927879 145.731979,103.449684 146.063583,102.971489 
	C147.508942,103.578766 148.954285,104.186043 150.976562,104.920059 
	C151.722473,105.060898 151.891479,105.074997 152.060501,105.089096 
	C152.367630,107.463448 152.674744,109.837799 152.919907,112.625816 
z"/>
<path fill="#F8DC46" opacity="1.000000" stroke="none" 
	d="
M142.994736,109.003609 
	C142.948990,109.169601 142.903259,109.335587 142.411835,109.753578 
	C140.967667,110.012268 139.969177,110.018951 138.970703,110.025642 
	C138.332748,109.586586 137.694778,109.147530 137.023956,108.036995 
	C137.324478,106.247002 137.657852,105.128479 138.177429,103.907639 
	C138.363632,103.805305 138.786392,103.846413 139.022278,104.044601 
	C138.335434,107.531502 140.862961,108.112251 142.994736,109.003609 
z"/>
<path fill="#F77341" opacity="1.000000" stroke="none" 
	d="
M149.344635,121.966293 
	C148.692520,120.908325 148.382507,119.794899 148.053925,118.332283 
	C149.116913,117.674286 150.198456,117.365479 151.837524,117.041306 
	C152.395050,117.025940 152.829727,117.063980 152.829727,117.063980 
	C151.782074,118.679604 150.734406,120.295219 149.344635,121.966293 
z"/>
<path fill="#F8D92B" opacity="1.000000" stroke="none" 
	d="
M138.983826,110.382523 
	C139.969177,110.018951 140.967667,110.012268 142.332184,109.999245 
	C142.764313,110.428810 142.830383,110.864716 142.921204,111.630096 
	C142.642654,113.053246 142.339355,114.146904 141.986694,115.577179 
	C140.957184,114.189003 139.977066,112.464203 138.983826,110.382523 
z"/>
<path fill="#F5D952" opacity="1.000000" stroke="none" 
	d="
M137.991241,104.009964 
	C137.657852,105.128479 137.324478,106.247002 136.977676,107.724686 
	C136.212692,108.073868 135.461105,108.063889 134.333862,108.092354 
	C133.958206,108.130806 133.922668,107.641701 134.046112,107.111389 
	C134.780319,105.758743 135.391113,104.936401 136.330475,104.042564 
	C137.103119,103.984032 137.547180,103.996994 137.991241,104.009964 
z"/>
<path fill="#FDE76B" opacity="1.000000" stroke="none" 
	d="
M152.091217,104.738441 
	C151.891479,105.074997 151.722473,105.060898 151.301483,105.016510 
	C151.193665,104.435860 151.337814,103.885490 151.717560,103.165955 
	C152.009399,103.460449 152.065674,103.924118 152.091217,104.738441 
z"/>
<path fill="#F79961" opacity="1.000000" stroke="none" 
	d="
M152.865234,116.791145 
	C152.829727,117.063980 152.395050,117.025940 152.177338,117.006027 
	C152.055252,116.688980 152.217621,116.434441 152.636383,116.097809 
	C152.850952,116.154854 152.875854,116.336586 152.865234,116.791145 
z"/>
<path fill="#F79961" opacity="1.000000" stroke="none" 
	d="
M153.174133,114.929718 
	C152.987671,115.013557 152.986206,114.517715 152.985825,114.269920 
	C153.110489,114.296707 153.235550,114.571297 153.174133,114.929718 
z"/>
<path fill="#F4C406" opacity="1.000000" stroke="none" 
	d="
M155.533051,111.551025 
	C155.477066,111.584755 155.589050,111.517288 155.533051,111.551025 
z"/>
<path fill="#F2C30A" opacity="1.000000" stroke="none" 
	d="
M166.037399,43.911980 
	C167.252411,44.737301 168.467407,45.562622 169.444031,46.700928 
	C168.802032,48.784126 168.768631,50.769138 167.898560,52.268700 
	C166.873978,54.034531 165.105240,55.362244 163.693756,56.911438 
	C161.680710,59.120888 162.690048,63.416954 165.360565,64.096687 
	C161.195099,67.771980 157.029617,71.447281 152.334412,74.914177 
	C151.205536,73.139061 150.606430,71.572350 150.373856,69.999962 
	C151.936630,68.356422 152.922882,66.499031 154.365646,65.118843 
	C160.497314,59.253120 164.191315,52.105743 166.037399,43.911980 
z"/>
<path fill="#F4CD16" opacity="1.000000" stroke="none" 
	d="
M165.643692,63.954201 
	C162.690048,63.416954 161.680710,59.120888 163.693756,56.911438 
	C165.105240,55.362244 166.873978,54.034531 167.898560,52.268700 
	C168.768631,50.769138 168.802032,48.784126 169.501175,47.014351 
	C169.712204,50.593128 169.627686,54.171471 169.858582,57.950119 
	C168.758270,60.037529 167.342545,61.924622 165.643692,63.954201 
z"/>
<path fill="#F0BA03" opacity="1.000000" stroke="none" 
	d="
M150.007324,70.005630 
	C150.606430,71.572350 151.205536,73.139061 152.004456,75.034927 
	C150.768387,76.377098 149.332550,77.390121 147.536102,78.341553 
	C147.175491,78.279976 146.966507,77.993286 146.914429,77.707703 
	C146.557205,76.963486 146.252075,76.504852 145.946960,76.046227 
	C145.952332,75.626511 145.957703,75.206787 145.956451,74.474991 
	C145.966080,73.971619 145.982315,73.780334 146.328735,73.255127 
	C147.099075,72.278206 147.539246,71.635208 147.979416,70.992210 
	C147.979416,70.992210 147.991913,70.495934 148.332413,70.248337 
	C149.117722,70.002373 149.562515,70.004005 150.007324,70.005630 
z"/>
<path fill="#F8D92B" opacity="1.000000" stroke="none" 
	d="
M145.117203,79.857437 
	C145.117203,79.857437 145.046539,79.433876 145.185745,78.978653 
	C145.872131,78.346718 146.419327,78.169998 146.966507,77.993286 
	C146.966507,77.993286 147.175491,78.279976 147.217880,78.454391 
	C147.257431,78.949249 147.155273,79.234108 146.571228,79.675896 
	C145.831512,79.864761 145.474350,79.861099 145.117203,79.857437 
z"/>
<path fill="#FDE76B" opacity="1.000000" stroke="none" 
	d="
M145.114761,80.173622 
	C145.474350,79.861099 145.831512,79.864761 146.454620,79.876373 
	C146.807907,80.039627 146.895218,80.194916 147.074097,80.600929 
	C146.481216,80.731033 145.796768,80.610420 145.114761,80.173622 
z"/>
<path fill="#F4C406" opacity="1.000000" stroke="none" 
	d="
M156.038727,171.966614 
	C156.030777,173.684036 156.014175,175.412598 155.996353,177.572296 
	C151.862122,173.283005 145.108398,170.460571 145.005142,162.164612 
	C145.008377,161.505173 145.009155,161.007217 145.151199,160.950256 
	C145.192993,160.925644 145.092743,160.957993 144.608368,160.995178 
	C142.483643,161.333130 140.743042,161.666260 139.031555,161.669891 
	C140.042984,160.226349 141.025284,159.112305 142.407333,158.005859 
	C144.938629,158.312515 147.070190,158.611618 149.201752,158.910706 
	C149.449326,159.416794 149.696899,159.922897 149.683411,160.970245 
	C148.872620,166.683243 151.343979,170.586746 156.038589,171.961823 
	C156.038589,171.961823 156.030090,171.977768 156.038727,171.966614 
z"/>
<path fill="#F4C406" opacity="1.000000" stroke="none" 
	d="
M145.061554,133.998566 
	C145.078781,134.406982 145.096008,134.815399 145.067078,136.009750 
	C145.017303,140.860718 145.013702,144.925735 145.005981,149.390945 
	C144.939011,152.067108 145.471085,154.685379 141.839508,154.630112 
	C139.298813,147.468597 142.011841,140.762497 141.998840,134.005783 
	C141.992676,133.999435 141.983536,133.980072 142.258820,133.871979 
	C143.055786,133.479797 143.577454,133.195724 144.099121,132.911652 
	C144.099121,132.911652 144.012405,132.932480 144.135056,133.174042 
	C144.525665,133.609909 144.793610,133.804245 145.061554,133.998566 
z"/>
<path fill="#FCD417" opacity="1.000000" stroke="none" 
	d="
M145.010101,148.990768 
	C145.013702,144.925735 145.017303,140.860718 145.059479,136.316315 
	C145.701172,136.326080 146.641479,136.700577 146.853043,137.322861 
	C148.292969,141.557938 149.619736,145.833389 150.876083,150.127106 
	C151.087631,150.850113 150.781082,151.724701 150.112976,152.744965 
	C148.011383,151.637390 146.510742,150.314087 145.010101,148.990768 
z"/>
<path fill="#F9CA0B" opacity="1.000000" stroke="none" 
	d="
M145.005981,149.390945 
	C146.510742,150.314087 148.011383,151.637390 149.878860,153.020966 
	C150.245682,153.081238 150.212372,153.506775 149.877045,153.861084 
	C149.445877,155.199997 149.350052,156.184586 149.254227,157.169189 
	C149.234573,157.556610 149.214920,157.944046 149.198517,158.621094 
	C147.070190,158.611618 144.938629,158.312515 142.405334,157.631409 
	C142.003601,156.500488 142.003601,155.751572 142.003616,155.002670 
	C145.471085,154.685379 144.939011,152.067108 145.005981,149.390945 
z"/>
<path fill="#F9CA0B" opacity="1.000000" stroke="none" 
	d="
M156.000443,171.605713 
	C151.343979,170.586746 148.872620,166.683243 149.693268,161.262283 
	C151.963562,164.425232 153.962921,167.837402 156.000443,171.605713 
z"/>
<path fill="#E4AA01" opacity="1.000000" stroke="none" 
	d="
M144.235779,132.640259 
	C143.577454,133.195724 143.055786,133.479797 142.263397,133.500824 
	C141.661591,131.824005 141.330490,130.410248 140.999390,128.996490 
	C142.220215,129.335022 143.441025,129.673553 145.009430,130.081177 
	C145.028809,130.889816 144.700623,131.629333 144.235779,132.640259 
z"/>
<path fill="#F4C406" opacity="1.000000" stroke="none" 
	d="
M149.486282,156.910843 
	C149.350052,156.184586 149.445877,155.199997 149.843277,154.071808 
	C150.002670,154.836319 149.860504,155.744415 149.486282,156.910843 
z"/>
<path fill="#FCD417" opacity="1.000000" stroke="none" 
	d="
M144.980743,133.758255 
	C144.793610,133.804245 144.525665,133.609909 144.178696,133.175674 
	C144.366425,133.129822 144.633163,133.323883 144.980743,133.758255 
z"/>
<path fill="#C17A02" opacity="1.000000" stroke="none" 
	d="
M86.760017,68.278908 
	C87.556839,68.170731 88.111183,68.341179 88.829788,69.156403 
	C88.993958,70.862640 88.993858,71.924095 88.996254,72.991196 
	C88.998741,72.996857 88.985535,72.993721 88.985535,72.993721 
	C88.222450,73.275169 87.469162,73.757530 86.694206,73.795280 
	C85.188522,73.868622 83.670692,73.692352 82.157898,73.619492 
	C82.977226,72.097824 83.709610,70.517532 84.670860,69.091522 
	C84.945679,68.683830 85.883644,68.723167 86.760017,68.278908 
z"/>
<path fill="#D39D01" opacity="1.000000" stroke="none" 
	d="
M90.976028,75.078293 
	C90.548615,75.076584 90.121201,75.074867 89.374687,75.091553 
	C89.036674,74.639374 89.017769,74.168793 88.992195,73.345970 
	C88.985535,72.993721 88.998741,72.996857 89.329849,72.995712 
	C90.105553,72.993973 90.550163,72.993385 90.997078,72.996010 
	C90.999390,72.999222 91.003807,73.003807 91.001823,73.349068 
	C90.991905,74.155647 90.983963,74.616974 90.976028,75.078293 
z"/>
<path fill="#DBA002" opacity="1.000000" stroke="none" 
	d="
M145.358673,185.084778 
	C144.273788,184.398621 143.500519,183.702332 142.367462,182.995041 
	C140.121048,177.392181 135.168060,178.548706 131.547089,179.219910 
	C124.897171,180.452560 118.871292,179.141434 112.391121,177.007919 
	C112.347801,174.247787 111.903511,170.964493 113.281548,168.894165 
	C114.586258,166.934006 117.802788,166.246399 120.714600,165.293823 
	C121.500671,166.391129 121.750641,167.193726 121.991615,168.375397 
	C119.223106,174.638901 120.796799,177.174286 127.521187,177.634918 
	C134.346054,178.102432 141.172501,178.547150 148.038544,179.369904 
	C149.711670,180.828735 151.344513,181.919464 152.977371,183.010193 
	C152.981949,183.430740 152.986511,183.851273 152.978973,184.585419 
	C152.553131,184.941696 152.139404,184.984360 150.993500,185.013962 
	C149.147171,185.021637 148.033020,185.042374 146.918869,185.063126 
	C146.502670,185.066971 146.086487,185.070801 145.358673,185.084778 
z"/>
<path fill="#C37E02" opacity="1.000000" stroke="none" 
	d="
M146.907089,185.397171 
	C148.033020,185.042374 149.147171,185.021637 150.681183,185.016083 
	C149.905869,187.190201 148.710693,189.349136 147.168091,191.606445 
	C144.089294,189.679199 145.720047,187.708054 146.907089,185.397171 
z"/>
<path fill="#B46F09" opacity="1.000000" stroke="none" 
	d="
M129.376099,185.989197 
	C131.160568,185.782227 133.320801,185.599289 135.737595,185.693329 
	C133.913391,185.984604 131.832626,185.998917 129.376099,185.989197 
z"/>
<path fill="#E8B801" opacity="1.000000" stroke="none" 
	d="
M150.373856,69.999962 
	C149.562515,70.004005 149.117722,70.002373 148.339508,70.000221 
	C148.153091,68.499031 148.300079,66.998375 149.072342,65.211853 
	C153.930817,61.264881 157.875000,57.490730 157.063828,51.085236 
	C156.939957,50.106949 157.671280,49.020359 158.007080,47.983864 
	C162.547592,49.859272 164.157227,47.553169 164.778259,43.196339 
	C165.410233,42.990658 165.679337,43.156212 165.952179,43.683102 
	C164.191315,52.105743 160.497314,59.253120 154.365646,65.118843 
	C152.922882,66.499031 151.936630,68.356422 150.373856,69.999962 
z"/>
<path fill="#D39D01" opacity="1.000000" stroke="none" 
	d="
M91.991806,69.008255 
	C95.109741,69.733223 98.234222,70.431465 101.343452,71.192009 
	C103.628181,71.750870 105.892967,72.391304 108.584671,72.992813 
	C109.002693,72.990234 109.000198,72.999466 109.035706,73.348831 
	C109.484337,74.389038 109.746658,75.265480 110.333611,75.742401 
	C117.174881,81.301247 119.948776,88.290886 117.993347,97.245148 
	C117.985779,97.488228 117.963982,97.974136 117.655106,97.993103 
	C116.933784,98.023918 116.521339,98.035767 115.668549,98.026794 
	C113.483429,97.998589 111.738647,97.991203 109.995453,97.555923 
	C109.994644,93.549728 109.801819,89.959373 110.027306,86.395477 
	C110.594566,77.429955 105.931328,73.643471 96.802032,75.726013 
	C94.736496,74.634727 92.870148,73.819267 91.003807,73.003807 
	C91.003807,73.003807 90.999390,72.999222 91.136566,72.676819 
	C91.513092,71.239029 91.752449,70.123642 91.991806,69.008255 
z"/>
<path fill="#C68D03" opacity="1.000000" stroke="none" 
	d="
M91.617554,69.005630 
	C91.752449,70.123642 91.513092,71.239029 91.134247,72.673607 
	C90.550163,72.993385 90.105553,72.993973 89.327362,72.990051 
	C88.993858,71.924095 88.993958,70.862640 88.995338,69.403008 
	C89.745514,69.004219 90.494408,69.003616 91.617554,69.005630 
z"/>
<path fill="#CF9E09" opacity="1.000000" stroke="none" 
	d="
M91.001823,73.349068 
	C92.870148,73.819267 94.736496,74.634727 96.745735,76.076218 
	C95.924850,78.801682 94.961067,80.901108 93.857742,83.201324 
	C94.502373,83.769432 95.286545,84.136757 95.417702,84.198196 
	C94.463722,85.548355 93.447525,86.986565 92.372726,88.429008 
	C92.314133,88.433235 92.212746,88.373833 91.888733,88.274559 
	C91.069336,88.529396 90.573944,88.883507 89.916061,89.553291 
	C89.230934,91.874992 88.708290,93.881027 88.129730,96.291443 
	C88.092232,97.512375 88.110641,98.328918 88.161598,99.473083 
	C89.031784,101.045944 89.869431,102.291176 90.341599,103.727386 
	C89.495796,105.309128 88.890053,106.671608 88.568169,108.098129 
	C88.199326,109.732712 88.082420,111.424141 87.612732,112.855179 
	C86.963875,111.370094 86.558350,110.120705 86.141754,108.886673 
	C86.130692,108.902039 86.101189,108.908104 86.094528,108.559380 
	C85.711433,107.189613 85.334991,106.168564 84.937637,104.952301 
	C84.916718,104.757080 84.896187,104.364944 84.896187,104.364944 
	C86.078918,98.066681 87.261650,91.768417 88.777458,85.372887 
	C89.196968,85.325104 89.283409,85.374580 89.369850,85.424057 
	C89.245033,85.283905 89.120216,85.143745 88.995399,85.003586 
	C90.155731,82.049416 93.688515,79.632980 91.026077,75.450989 
	C90.983963,74.616974 90.991905,74.155647 91.001823,73.349068 
z"/>
<path fill="#CC481B" opacity="1.000000" stroke="none" 
	d="
M84.546814,104.268394 
	C84.896187,104.364944 84.916718,104.757080 84.928719,104.958031 
	C84.940720,105.158981 84.916794,105.171227 84.676132,105.142746 
	C84.185020,105.263580 83.934570,105.412903 83.684113,105.562225 
	C84.115829,105.696899 84.547554,105.831573 84.982094,106.343147 
	C84.989479,107.473167 84.994049,108.226280 84.628754,108.984344 
	C83.520531,109.000069 82.782188,109.010864 82.043839,109.021652 
	C82.033295,107.671631 82.022758,106.321609 82.023819,104.572006 
	C82.756104,104.172226 83.476776,104.172035 84.546814,104.268394 
z"/>
<path fill="#EDC108" opacity="1.000000" stroke="none" 
	d="
M125.961220,98.217758 
	C126.990341,88.850342 125.512962,80.287636 118.422142,73.295448 
	C119.529778,72.938423 120.285759,72.925995 121.357330,72.956551 
	C122.097389,73.017136 122.521843,73.034729 123.019539,73.388229 
	C126.315079,77.598335 133.176453,78.760361 132.078339,85.997734 
	C134.858215,85.818886 137.622284,85.785858 136.628357,89.918243 
	C134.791000,90.607574 133.323914,91.237289 131.543518,92.050171 
	C130.507797,94.218117 129.785416,96.202888 128.859848,98.415924 
	C127.758194,98.502045 126.859703,98.359901 125.961220,98.217758 
z"/>
<path fill="#F8DC46" opacity="1.000000" stroke="none" 
	d="
M125.550629,98.170761 
	C126.859703,98.359901 127.758194,98.502045 129.148895,98.563751 
	C131.761353,100.360229 133.881622,102.237144 136.001892,104.114059 
	C135.391113,104.936401 134.780319,105.758743 134.034515,106.866470 
	C133.182205,107.099815 132.464890,107.047775 131.333954,106.652145 
	C130.238205,105.909798 129.556122,105.511047 128.874023,105.112297 
	C127.502319,105.055252 126.130615,104.998207 124.177826,104.918251 
	C123.596748,104.895340 123.253342,104.894676 123.147385,104.579292 
	C122.330727,103.861755 121.620010,103.459610 120.550095,103.013321 
	C118.465569,102.309494 116.740250,101.649803 115.042526,100.672806 
	C115.416389,99.586220 115.762650,98.816917 116.108902,98.047615 
	C116.521339,98.035767 116.933784,98.023918 117.913666,98.017303 
	C118.653816,98.015617 118.826515,98.008690 119.334206,98.016685 
	C120.115715,98.008980 120.562248,97.986351 121.008774,97.963730 
	C122.385857,98.017067 123.762947,98.070419 125.550629,98.170761 
z"/>
<path fill="#D9A401" opacity="1.000000" stroke="none" 
	d="
M121.238213,97.664734 
	C120.562248,97.986351 120.115715,98.008980 119.225525,97.798317 
	C118.582062,97.293442 118.321747,97.105782 118.000923,97.002060 
	C119.948776,88.290886 117.174881,81.301247 110.333611,75.742401 
	C109.746658,75.265480 109.484337,74.389038 109.034988,73.349854 
	C114.952118,72.961052 117.444550,78.415710 120.060532,81.813950 
	C122.672379,85.206810 122.050461,91.112244 122.722824,95.933380 
	C122.780159,96.344482 121.908005,96.885216 121.238213,97.664734 
z"/>
<path fill="#F7D83A" opacity="1.000000" stroke="none" 
	d="
M121.041733,72.913567 
	C120.285759,72.925995 119.529778,72.938423 118.396210,72.945465 
	C117.706589,72.844505 117.453491,72.665596 117.152321,72.193298 
	C117.066833,71.802299 117.088348,71.621330 117.504074,71.190681 
	C118.946098,71.598534 119.993912,72.256050 121.041733,72.913567 
z"/>
<path fill="#D08001" opacity="1.000000" stroke="none" 
	d="
M129.026031,132.038681 
	C125.521980,136.034500 117.219254,138.032623 112.293388,136.152771 
	C110.160881,135.338943 107.953133,134.722290 105.014175,134.009460 
	C103.500420,134.004379 102.752037,134.005905 101.744904,133.896362 
	C100.991310,133.519043 100.496490,133.252808 99.955910,132.662415 
	C98.937157,132.243134 97.964149,132.147995 96.638321,132.008423 
	C94.525810,131.294281 92.766144,130.624557 90.972580,129.668121 
	C90.296043,129.243469 89.653404,129.105530 88.594444,128.965729 
	C86.791992,128.955475 85.405869,128.947098 84.011200,128.678131 
	C83.990509,128.244171 83.978363,128.070770 83.966217,127.897385 
	C83.959259,127.470993 83.952293,127.044594 84.386658,126.304199 
	C86.772644,126.246078 88.750168,126.355598 90.656158,126.783646 
	C98.120377,128.459961 105.562012,130.236847 113.466644,131.982941 
	C117.945793,131.666855 121.970329,131.344193 126.205566,131.281708 
	C127.286186,131.707489 128.156113,131.873093 129.026031,132.038681 
z"/>
<path fill="#CF9E09" opacity="1.000000" stroke="none" 
	d="
M78.946922,154.909943 
	C78.628387,153.518799 78.309853,152.127640 77.983612,150.370499 
	C78.983376,143.644348 79.990837,137.284180 81.254227,130.568314 
	C82.008751,130.470718 82.507355,130.728851 83.024078,131.226608 
	C83.042206,131.466248 83.063843,131.946106 83.037338,132.367371 
	C83.014832,134.186768 83.018837,135.584885 83.016174,137.429092 
	C84.006767,143.249298 85.004028,148.623428 86.000534,154.366531 
	C85.654343,155.833359 85.308899,156.931213 84.599594,158.014923 
	C83.508736,157.984680 82.781723,157.968567 82.054718,157.952469 
	C82.054718,157.952469 82.003204,157.996948 81.994370,157.627930 
	C80.972672,156.475906 79.959793,155.692932 78.946922,154.909943 
z"/>
<path fill="#DD9403" opacity="1.000000" stroke="none" 
	d="
M113.012032,131.976364 
	C105.562012,130.236847 98.120377,128.459961 90.656158,126.783646 
	C88.750168,126.355598 86.772644,126.246078 84.393066,125.984421 
	C83.954185,125.295441 83.950233,124.612251 84.293823,123.505783 
	C85.367386,122.958527 86.093407,122.834557 86.918274,123.087914 
	C90.676697,123.643929 94.336273,123.822617 98.065254,124.362579 
	C101.777245,126.157272 105.470146,127.478470 109.038086,129.078339 
	C110.501625,129.734604 111.695496,130.992279 113.012032,131.976364 
z"/>
<path fill="#B73F05" opacity="1.000000" stroke="none" 
	d="
M86.819427,122.710579 
	C86.093407,122.834557 85.367386,122.958527 84.280090,123.164093 
	C83.112946,122.991188 82.307076,122.736702 81.313515,122.226715 
	C81.125816,121.971207 81.171783,121.962158 81.577713,121.971375 
	C85.032944,122.221100 86.091774,120.645836 86.028381,117.786331 
	C85.962547,114.817039 86.102737,111.843170 86.152824,108.871307 
	C86.558350,110.120705 86.963875,111.370094 87.646912,113.278358 
	C87.556084,116.861679 87.187759,119.786125 86.819427,122.710579 
z"/>
<path fill="#C37E02" opacity="1.000000" stroke="none" 
	d="
M83.005951,130.986969 
	C82.507355,130.728851 82.008751,130.470718 81.248642,130.107468 
	C81.743065,129.316971 82.499001,128.631607 83.610580,127.921806 
	C83.978363,128.070770 83.990509,128.244171 83.770035,128.860214 
	C83.360260,129.864243 83.183105,130.425598 83.005951,130.986969 
z"/>
<path fill="#B56A01" opacity="1.000000" stroke="none" 
	d="
M78.957054,154.924606 
	C79.959793,155.692932 80.972672,156.475906 82.014763,157.600739 
	C81.285431,157.958725 80.526878,157.974899 79.389381,157.987213 
	C78.964584,157.567093 78.918732,157.150833 78.904930,156.137573 
	C78.944916,155.349670 78.952858,155.158752 78.960808,154.967819 
	C78.960808,154.967819 78.967186,154.939270 78.957054,154.924606 
z"/>
<path fill="#CB8F03" opacity="1.000000" stroke="none" 
	d="
M78.785896,155.059525 
	C78.952858,155.158752 78.944916,155.349670 78.887039,155.823807 
	C78.692055,155.899124 78.523109,155.702393 78.417191,155.476166 
	C78.387207,155.412140 78.541313,155.261917 78.785896,155.059525 
z"/>
<path fill="#DFAF08" opacity="1.000000" stroke="none" 
	d="
M157.979828,47.666367 
	C157.671280,49.020359 156.939957,50.106949 157.063828,51.085236 
	C157.875000,57.490730 153.930817,61.264881 149.350647,64.962234 
	C150.655228,58.923325 152.306763,52.848175 154.028625,46.436836 
	C154.619476,45.911278 155.140015,45.721909 155.826691,45.308468 
	C156.646057,45.839226 157.299316,46.594051 157.979828,47.666367 
z"/>
<path fill="#DFAF08" opacity="1.000000" stroke="none" 
	d="
M147.660492,71.036812 
	C147.539246,71.635208 147.099075,72.278206 146.340912,72.967438 
	C146.462463,72.369591 146.902023,71.725502 147.660492,71.036812 
z"/>
<path fill="#E5AE01" opacity="1.000000" stroke="none" 
	d="
M152.949310,182.658478 
	C151.344513,181.919464 149.711670,180.828735 147.883789,179.055664 
	C144.579239,174.881882 140.710892,174.099045 136.196060,174.703430 
	C133.309921,175.089783 130.330032,174.775803 126.697273,174.775803 
	C127.826614,171.952606 128.414917,170.481903 129.220154,168.899277 
	C129.708206,168.587677 129.898285,168.328552 130.385590,168.007736 
	C132.169830,166.673920 133.575821,165.342346 135.359955,164.006378 
	C136.826233,163.334442 137.914337,162.666916 139.002441,161.999390 
	C140.743042,161.666260 142.483643,161.333130 144.612122,160.999939 
	C145.000000,160.999878 145.009155,161.007217 145.009155,161.007217 
	C145.009155,161.007217 145.008377,161.505173 145.005569,161.754166 
	C139.227280,165.921829 139.532150,167.663223 144.466873,171.561569 
	C147.944321,174.308701 150.148560,178.667526 152.949310,182.658478 
z"/>
<path fill="#F8DF5C" opacity="1.000000" stroke="none" 
	d="
M121.357330,72.956551 
	C119.993912,72.256050 118.946098,71.598534 117.547195,70.920731 
	C117.196114,70.900452 117.081589,70.449463 117.062805,70.217377 
	C119.400719,65.242142 122.855202,62.975693 128.532837,65.423698 
	C126.644966,66.476181 124.448914,67.134552 121.944031,67.885513 
	C122.712242,69.708298 123.384697,71.303871 123.779312,72.939209 
	C123.316414,73.003426 123.131355,73.027870 122.946304,73.052322 
	C122.521843,73.034729 122.097389,73.017136 121.357330,72.956551 
z"/>
<path fill="#FDE575" opacity="1.000000" stroke="none" 
	d="
M124.057152,72.899445 
	C123.384697,71.303871 122.712242,69.708298 121.944031,67.885513 
	C124.448914,67.134552 126.644966,66.476181 128.940842,65.450577 
	C130.102112,65.745934 131.163574,66.408516 132.550415,67.118973 
	C133.076401,67.986961 133.276978,68.807076 133.681976,70.166000 
	C132.255005,72.153542 130.623611,73.602272 128.684662,74.907516 
	C126.937126,74.142509 125.497139,73.520981 124.057152,72.899445 
z"/>
<path fill="#FDE76B" opacity="1.000000" stroke="none" 
	d="
M128.992203,75.051003 
	C130.623611,73.602272 132.255005,72.153542 133.939972,70.359695 
	C135.990753,71.754807 137.987991,73.495033 140.056122,75.563362 
	C138.626953,75.665512 137.126877,75.439552 135.305817,75.165245 
	C136.684021,77.854668 137.827988,80.087013 138.606476,82.645950 
	C135.158051,80.332024 132.075134,77.691513 128.992203,75.051003 
z"/>
<path fill="#FDE76B" opacity="1.000000" stroke="none" 
	d="
M146.914429,77.707695 
	C146.419327,78.169998 145.872131,78.346718 145.153809,78.766327 
	C143.682373,78.235260 142.382065,77.461296 141.035843,76.351318 
	C142.368149,76.026260 143.746368,76.037231 145.535767,76.047211 
	C146.252075,76.504852 146.557205,76.963486 146.914429,77.707695 
z"/>
<path fill="#CD350D" opacity="1.000000" stroke="none" 
	d="
M86.141754,108.886673 
	C86.102737,111.843170 85.962547,114.817039 86.028381,117.786331 
	C86.091774,120.645836 85.032944,122.221100 81.592445,121.952835 
	C81.651962,118.417984 82.102676,114.910881 82.276260,111.201935 
	C82.006859,110.560219 82.014587,110.120331 82.033081,109.351044 
	C82.782188,109.010864 83.520531,109.000069 84.905098,108.977310 
	C85.734612,108.946251 85.917900,108.927177 86.101189,108.908104 
	C86.101189,108.908104 86.130692,108.902039 86.141754,108.886673 
z"/>
<path fill="#CF572D" opacity="1.000000" stroke="none" 
	d="
M80.005127,115.005081 
	C79.969391,115.660431 79.929077,116.311195 79.888763,116.961960 
	C79.731064,116.959076 79.573364,116.956200 79.415665,116.953323 
	C79.450317,116.412537 79.484970,115.871742 79.755501,115.162697 
	C79.991386,114.994438 80.000549,115.000504 80.005127,115.005081 
z"/>
<path fill="#F1D23C" opacity="1.000000" stroke="none" 
	d="
M128.684662,74.907516 
	C132.075134,77.691513 135.158051,80.332024 138.579590,83.029495 
	C140.901138,86.811714 142.884094,90.536980 144.628159,94.829102 
	C143.311966,95.938393 142.234650,96.480820 141.086426,96.649750 
	C139.676559,94.137047 138.337601,91.997841 136.998642,89.858635 
	C137.622284,85.785858 134.858215,85.818886 132.078339,85.997734 
	C133.176453,78.760361 126.315079,77.598335 123.019539,73.388229 
	C123.131355,73.027870 123.316414,73.003426 123.779312,72.939209 
	C125.497139,73.520981 126.937126,74.142509 128.684662,74.907516 
z"/>
<path fill="#F5D952" opacity="1.000000" stroke="none" 
	d="
M141.157333,97.023247 
	C142.234650,96.480820 143.311966,95.938393 144.639465,95.198181 
	C145.242783,97.435631 145.595947,99.870872 146.006348,102.638794 
	C145.731979,103.449684 145.400375,103.927879 145.058777,104.711563 
	C144.546463,106.226921 144.044144,107.436790 143.268280,108.825134 
	C140.862961,108.112251 138.335434,107.531502 139.183121,103.819321 
	C139.449234,102.973190 139.790390,102.550529 140.106705,102.099930 
	C140.081848,102.071991 140.052429,102.140480 140.294006,102.059959 
	C140.646851,101.689018 140.758102,101.398590 140.949219,100.704391 
	C141.071838,99.208168 141.114594,98.115707 141.157333,97.023247 
z"/>
<path fill="#B56A01" opacity="1.000000" stroke="none" 
	d="
M100.001663,132.986572 
	C100.496490,133.252808 100.991310,133.519043 101.743546,134.285522 
	C103.998238,138.523804 105.995506,142.261841 107.992783,145.999863 
	C107.667419,149.057510 107.342064,152.115173 107.006775,155.584885 
	C106.541962,156.000595 106.087067,156.004242 105.013550,155.778061 
	C104.200043,154.099915 104.005150,152.651581 104.110825,150.940598 
	C105.202286,145.049866 102.110619,141.062469 98.832779,137.072021 
	C97.920952,135.961945 97.593643,134.371750 97.373627,133.000092 
	C98.499947,132.994431 99.250801,132.990494 100.001663,132.986572 
z"/>
<path fill="#9E4B02" opacity="1.000000" stroke="none" 
	d="
M127.101349,151.069366 
	C126.614670,151.048874 126.127991,151.028381 125.274445,150.994751 
	C127.401031,146.091843 129.894470,141.202072 133.016022,136.203003 
	C133.795441,137.434479 133.946747,138.775223 134.067963,140.420990 
	C133.989838,141.132721 133.941803,141.539444 133.553757,141.999832 
	C131.838181,144.391998 130.462601,146.730484 129.078339,149.047363 
	C129.069641,149.025757 129.050201,149.067886 128.818390,149.164566 
	C128.432419,149.548950 128.278290,149.836639 128.000275,150.327377 
	C127.658623,150.768402 127.400269,150.948059 127.101349,151.069366 
z"/>
<path fill="#B87402" opacity="1.000000" stroke="none" 
	d="
M108.302902,145.840240 
	C105.995506,142.261841 103.998238,138.523804 102.002312,134.396606 
	C102.752037,134.005905 103.500420,134.004379 104.622971,134.006287 
	C106.220245,136.143646 107.755547,138.167755 108.558220,140.449570 
	C109.106064,142.006958 108.630836,143.924240 108.302902,145.840240 
z"/>
<path fill="#B55F02" opacity="1.000000" stroke="none" 
	d="
M134.098053,140.115982 
	C133.946747,138.775223 133.795441,137.434479 133.320038,136.045105 
	C133.581100,135.182587 134.166245,134.368713 135.174347,133.253494 
	C136.064774,132.631653 136.532242,132.311157 137.333298,131.991440 
	C138.111298,131.988190 138.555725,131.984146 139.001282,132.362900 
	C139.015457,133.511063 139.028488,134.276428 139.016678,135.264313 
	C138.991837,135.486832 138.929031,135.930222 138.626465,136.087341 
	C136.915283,137.534973 135.506668,138.825485 134.098053,140.115982 
z"/>
<path fill="#D08001" opacity="1.000000" stroke="none" 
	d="
M136.999710,131.990646 
	C136.532242,132.311157 136.064774,132.631653 135.300079,132.978210 
	C133.823761,132.854355 132.644699,132.704453 131.235596,131.958466 
	C131.010345,130.927475 131.015137,130.492554 131.349030,130.050446 
	C132.117203,130.046219 132.556320,130.049210 133.144592,130.269409 
	C133.864426,130.345764 134.435074,130.204926 135.338135,130.058990 
	C136.113449,130.037720 136.556381,130.021530 136.998932,130.336349 
	C136.998932,131.108444 136.999329,131.549545 136.999710,131.990646 
z"/>
<path fill="#DD9403" opacity="1.000000" stroke="none" 
	d="
M131.019943,130.057648 
	C131.015137,130.492554 131.010345,130.927475 131.001251,131.688873 
	C130.558731,132.017792 130.120499,132.020233 129.354156,132.030670 
	C128.156113,131.873093 127.286186,131.707489 126.207672,130.945953 
	C126.001724,129.903046 126.004372,129.456070 126.396278,129.007935 
	C128.197006,129.357040 129.608475,129.707352 131.019943,130.057648 
z"/>
<path fill="#D49504" opacity="1.000000" stroke="none" 
	d="
M134.067963,140.420990 
	C135.506668,138.825485 136.915283,137.534973 138.653168,136.523178 
	C137.995544,140.536499 137.008667,144.271103 135.726776,148.217010 
	C134.817108,149.585434 133.793137,150.698761 133.663742,151.907791 
	C133.261261,155.669022 131.066254,159.731308 134.968430,163.257278 
	C134.973785,163.675919 134.977798,163.843338 134.981796,164.010773 
	C133.575821,165.342346 132.169830,166.673920 130.238647,167.779572 
	C129.139069,167.707428 128.564697,167.861206 127.644836,168.043640 
	C125.533096,168.046982 123.766853,168.021667 122.000610,167.996338 
	C121.750641,167.193726 121.500671,166.391129 121.125809,165.293640 
	C121.002289,164.547028 121.003662,164.095261 121.011238,163.304047 
	C122.453224,163.619720 123.889015,164.274857 125.669952,164.957535 
	C126.641098,164.078583 127.982155,162.596954 127.785324,162.352203 
	C125.038597,158.936996 126.671463,155.229645 126.963043,151.352142 
	C127.400269,150.948059 127.658623,150.768402 128.203583,150.197479 
	C128.796158,149.659180 128.969299,149.393616 129.050201,149.067886 
	C129.050201,149.067886 129.069641,149.025757 129.420837,148.994400 
	C131.145935,146.624084 132.519852,144.285126 133.893768,141.946167 
	C133.941803,141.539444 133.989838,141.132721 134.067963,140.420990 
z"/>
<path fill="#B56A01" opacity="1.000000" stroke="none" 
	d="
M82.076462,158.340363 
	C82.781723,157.968567 83.508736,157.984680 84.757095,158.312973 
	C87.536774,160.720139 89.795113,162.815140 92.053436,164.910126 
	C91.787720,165.740280 91.521996,166.570450 91.126358,167.705627 
	C90.552902,168.009018 90.109367,168.007416 89.333153,168.004120 
	C88.236122,166.820633 87.577370,164.718613 86.689110,164.616684 
	C82.896835,164.181519 82.868477,161.254257 82.076462,158.340363 
z"/>
<path fill="#D29602" opacity="1.000000" stroke="none" 
	d="
M92.424408,164.937027 
	C89.795113,162.815140 87.536774,160.720139 85.120949,158.327118 
	C85.308899,156.931213 85.654343,155.833359 86.385788,154.322693 
	C91.415024,153.464447 93.959396,151.331894 93.142174,146.266083 
	C93.030434,145.573410 93.693192,144.755798 94.298340,143.872528 
	C96.707031,144.512924 98.814735,145.276810 101.080353,146.352386 
	C101.478790,147.781174 101.719307,148.898270 101.617462,149.975555 
	C100.076355,149.377487 98.877609,148.819244 97.678871,148.260986 
	C97.415276,148.520905 97.151688,148.780807 96.888092,149.040710 
	C97.594933,150.025620 98.301781,151.010544 98.869827,152.314240 
	C98.490700,156.432846 98.250374,160.232681 98.010056,164.032501 
	C96.271828,164.342972 94.533607,164.653442 92.424408,164.937027 
z"/>
<path fill="#DBA002" opacity="1.000000" stroke="none" 
	d="
M98.353622,164.015457 
	C98.250374,160.232681 98.490700,156.432846 99.212341,152.472504 
	C103.787994,154.369659 101.287796,158.180130 102.036652,161.127029 
	C100.923500,162.084152 99.810349,163.041290 98.353622,164.015457 
z"/>
<path fill="#E4AA01" opacity="1.000000" stroke="none" 
	d="
M102.341949,161.071548 
	C101.287796,158.180130 103.787994,154.369659 99.351135,152.153717 
	C98.301781,151.010544 97.594933,150.025620 96.888092,149.040710 
	C97.151688,148.780807 97.415276,148.520905 97.678871,148.260986 
	C98.877609,148.819244 100.076355,149.377487 101.786339,150.204987 
	C102.801811,150.717239 103.306038,150.960236 103.810257,151.203247 
	C104.005150,152.651581 104.200043,154.099915 104.672379,155.783691 
	C104.182304,157.684784 103.414780,159.350433 102.341949,161.071548 
z"/>
<path fill="#E4AA01" opacity="1.000000" stroke="none" 
	d="
M131.349030,130.050446 
	C129.608475,129.707352 128.197006,129.357040 125.951424,129.004272 
	C119.284958,130.350845 115.145470,126.974129 110.863487,123.936287 
	C108.700409,122.401695 108.535156,121.335121 110.823845,119.458244 
	C112.911415,117.746323 114.301361,115.183716 116.276955,112.890709 
	C118.371597,112.213707 120.188065,111.642029 122.048981,111.443413 
	C122.064621,113.862732 122.633331,116.162239 121.893730,117.907234 
	C119.767982,122.922729 120.254509,124.469604 125.567070,125.653847 
	C127.316170,126.043755 129.184830,125.897255 130.998825,125.996033 
	C132.961197,126.756332 134.923584,127.516632 136.942657,128.888092 
	C136.999329,129.667969 136.999313,129.836670 136.999313,130.005356 
	C136.556381,130.021530 136.113449,130.037720 135.198151,129.819305 
	C134.149002,129.740555 133.572220,129.896378 132.995422,130.052200 
	C132.556320,130.049210 132.117203,130.046219 131.349030,130.050446 
z"/>
<path fill="#E6B302" opacity="1.000000" stroke="none" 
	d="
M130.946686,125.583405 
	C129.184830,125.897255 127.316170,126.043755 125.567070,125.653847 
	C120.254509,124.469604 119.767982,122.922729 121.893730,117.907234 
	C122.633331,116.162239 122.064621,113.862732 122.385635,111.468452 
	C124.441055,111.412048 126.204262,111.703667 127.967468,111.995277 
	C128.645142,113.273148 129.690323,114.487076 129.925995,115.841835 
	C130.460526,118.914665 130.596512,122.056816 130.946686,125.583405 
z"/>
<path fill="#D2A612" opacity="1.000000" stroke="none" 
	d="
M128.066986,111.716454 
	C126.204262,111.703667 124.441055,111.412048 122.341194,111.095390 
	C120.188065,111.642029 118.371597,112.213707 116.029297,112.888535 
	C115.503456,112.991692 115.008125,112.985695 115.008011,112.655426 
	C115.008919,111.884811 115.009949,111.444458 115.345764,111.003662 
	C116.492805,111.003220 117.305061,111.003220 117.155685,111.003220 
	C116.380470,107.840744 115.653793,104.876320 114.946564,101.681213 
	C114.965996,101.450523 115.014931,100.990105 115.014931,100.990105 
	C116.740250,101.649803 118.465569,102.309494 120.624496,103.345337 
	C121.789848,104.112541 122.521599,104.503609 123.253342,104.894676 
	C123.253342,104.894676 123.596748,104.895340 123.765671,104.919968 
	C125.345222,107.108932 126.755859,109.273277 128.066986,111.716454 
z"/>
<path fill="#D08001" opacity="1.000000" stroke="none" 
	d="
M139.041519,135.041794 
	C139.028488,134.276428 139.015457,133.511063 138.999512,131.992325 
	C138.997971,130.493042 138.999359,129.747147 139.000732,129.001236 
	C139.444901,129.000793 139.889038,129.000351 140.666290,128.998199 
	C141.330490,130.410248 141.661591,131.824005 141.988098,133.608917 
	C141.983536,133.980072 141.992676,133.999435 141.680695,134.027008 
	C140.592987,134.383636 139.817245,134.712723 139.041519,135.041794 
z"/>
<path fill="#DD9403" opacity="1.000000" stroke="none" 
	d="
M138.667206,128.997070 
	C138.999359,129.747147 138.997971,130.493042 138.998352,131.609528 
	C138.555725,131.984146 138.111298,131.988190 137.333298,131.991440 
	C136.999329,131.549545 136.998932,131.108444 136.998932,130.336349 
	C136.999313,129.836670 136.999329,129.667969 137.000031,129.245804 
	C137.445023,128.992523 137.889343,128.992722 138.667206,128.997070 
z"/>
<path fill="#F8D92B" opacity="1.000000" stroke="none" 
	d="
M128.954834,105.421623 
	C129.556122,105.511047 130.238205,105.909798 130.973663,106.630157 
	C130.363235,106.544838 129.699432,106.137894 128.954834,105.421623 
z"/>
<path fill="#F77341" opacity="1.000000" stroke="none" 
	d="
M148.287415,115.790695 
	C145.973877,115.825783 143.451935,116.105125 144.863510,112.318542 
	C148.756973,110.655350 148.164383,113.594513 148.287415,115.790695 
z"/>
<path fill="#362F26" opacity="1.000000" stroke="none" 
	d="
M140.131561,102.127876 
	C139.790390,102.550529 139.449234,102.973190 138.947235,103.621132 
	C138.786392,103.846413 138.363632,103.805305 138.177429,103.907639 
	C137.547180,103.996994 137.103119,103.984032 136.330475,104.042564 
	C133.881622,102.237144 131.761353,100.360229 129.352051,98.335480 
	C129.785416,96.202888 130.507797,94.218117 131.583313,92.434235 
	C134.109909,96.281303 134.440201,101.518707 140.131561,102.127876 
z"/>
<path fill="#EDB802" opacity="1.000000" stroke="none" 
	d="
M139.016678,135.264313 
	C139.817245,134.712723 140.592987,134.383636 141.686859,134.033356 
	C142.011841,140.762497 139.298813,147.468597 141.839508,154.630112 
	C142.003601,155.751572 142.003601,156.500488 142.005585,157.623840 
	C141.025284,159.112305 140.042984,160.226349 139.031555,161.669891 
	C137.914337,162.666916 136.826233,163.334442 135.359955,164.006378 
	C134.977798,163.843338 134.973785,163.675919 135.280151,163.222015 
	C135.734299,157.958923 135.878036,152.982330 136.021774,148.005722 
	C137.008667,144.271103 137.995544,140.536499 138.955734,136.366058 
	C138.929031,135.930222 138.991837,135.486832 139.016678,135.264313 
z"/>
<path fill="#E5AE01" opacity="1.000000" stroke="none" 
	d="
M144.996246,160.995117 
	C145.092743,160.957993 145.192993,160.925644 145.151199,160.950256 
	C145.009155,161.007217 145.000000,160.999878 144.996246,160.995117 
z"/>
<path fill="#E0A902" opacity="1.000000" stroke="none" 
	d="
M121.991608,168.375397 
	C123.766853,168.021667 125.533096,168.046982 127.756454,168.261719 
	C128.416763,168.722443 128.679993,168.909134 129.003235,169.011215 
	C128.414917,170.481903 127.826614,171.952606 126.697273,174.775803 
	C130.330032,174.775803 133.309921,175.089783 136.196060,174.703430 
	C140.710892,174.099045 144.579239,174.881882 147.843506,178.687592 
	C141.172501,178.547150 134.346054,178.102432 127.521187,177.634918 
	C120.796799,177.174286 119.223106,174.638901 121.991608,168.375397 
z"/>
<path fill="#CC9501" opacity="1.000000" stroke="none" 
	d="
M93.997284,83.000534 
	C94.961067,80.901108 95.924850,78.801682 96.944931,76.352043 
	C105.931328,73.643471 110.594566,77.429955 110.027306,86.395477 
	C109.801819,89.959373 109.994644,93.549728 109.676376,97.702393 
	C108.232246,98.505516 107.108780,98.734283 105.945480,98.585808 
	C105.602409,94.358635 105.570389,90.460175 104.893494,86.677094 
	C104.491638,84.431114 103.510811,81.874939 101.908211,80.450958 
	C101.218422,79.838058 98.306145,81.777229 96.376625,82.483368 
	C95.621552,82.759689 94.792595,82.834137 93.997284,83.000534 
z"/>
<path fill="#E8B801" opacity="1.000000" stroke="none" 
	d="
M105.985306,98.963043 
	C107.108780,98.734283 108.232246,98.505516 109.674797,98.130287 
	C111.738647,97.991203 113.483429,97.998589 115.668556,98.026794 
	C115.762650,98.816917 115.416389,99.586220 115.042526,100.672806 
	C115.014931,100.990105 114.965996,101.450523 114.745758,101.823212 
	C114.267357,102.414780 114.090210,102.686478 113.571899,103.011658 
	C110.433723,103.334297 107.717720,103.656281 104.823547,103.736664 
	C104.104530,102.349304 103.563683,101.203545 103.340569,100.020721 
	C104.433968,99.643448 105.209633,99.303246 105.985306,98.963043 
z"/>
<path fill="#E8B801" opacity="1.000000" stroke="none" 
	d="
M117.993347,97.245148 
	C118.321747,97.105782 118.582062,97.293442 118.890541,97.783401 
	C118.826515,98.008690 118.653816,98.015617 118.222549,97.998337 
	C117.963982,97.974136 117.985779,97.488228 117.993347,97.245148 
z"/>
<path fill="#D59F03" opacity="1.000000" stroke="none" 
	d="
M115.010971,111.004105 
	C115.009949,111.444458 115.008919,111.884811 114.732529,112.855034 
	C108.970055,116.923698 103.482948,120.462494 97.995850,124.001297 
	C94.336273,123.822617 90.676697,123.643929 86.918274,123.087914 
	C87.187759,119.786125 87.556084,116.861679 87.890236,113.514053 
	C88.082420,111.424141 88.199326,109.732712 88.568169,108.098129 
	C88.890053,106.671608 89.495796,105.309128 90.403023,103.750053 
	C90.829926,103.581749 90.912148,103.688332 91.075394,103.987595 
	C92.144905,104.152000 93.051170,104.017136 93.981499,103.921661 
	C94.005562,103.961052 93.922577,103.920609 94.275925,103.952057 
	C95.441071,104.343285 96.252869,104.703056 97.041550,105.441154 
	C97.351089,107.666138 93.772964,111.009529 99.140488,111.213943 
	C99.858482,111.290024 100.431297,111.136963 101.222725,110.878143 
	C101.714119,110.575073 101.900299,110.315613 102.291641,110.119415 
	C103.377899,110.497620 104.172409,110.750427 105.079651,111.221146 
	C105.394142,111.713150 105.658852,111.896149 106.352600,112.030624 
	C109.482765,111.716835 112.246872,111.360474 115.010971,111.004105 
z"/>
<path fill="#201A13" opacity="1.000000" stroke="none" 
	d="
M90.912148,103.688324 
	C90.912148,103.688332 90.829926,103.581749 90.768501,103.559082 
	C89.869431,102.291176 89.031784,101.045944 88.433815,99.280960 
	C88.510872,97.803169 88.348259,96.845108 88.185646,95.887054 
	C88.708290,93.881027 89.230934,91.874992 90.216148,89.496933 
	C91.190063,88.874542 91.701408,88.624191 92.212746,88.373833 
	C92.212746,88.373833 92.314133,88.433235 92.725967,88.438904 
	C99.683701,88.332565 101.679008,91.067696 100.494827,99.082352 
	C98.135796,100.833069 96.029182,102.376839 93.922577,103.920609 
	C93.922577,103.920609 94.005562,103.961052 93.607025,103.846848 
	C92.443047,103.717873 91.677597,103.703102 90.912148,103.688324 
z"/>
<path fill="#C38C05" opacity="1.000000" stroke="none" 
	d="
M100.747238,98.875404 
	C101.679008,91.067696 99.683701,88.332565 92.784569,88.434677 
	C93.447525,86.986565 94.463722,85.548355 95.417702,84.198196 
	C95.286545,84.136757 94.502373,83.769432 93.857742,83.201317 
	C94.792595,82.834137 95.621552,82.759689 96.376625,82.483368 
	C98.306145,81.777229 101.218422,79.838058 101.908211,80.450958 
	C103.510811,81.874939 104.491638,84.431114 104.893494,86.677094 
	C105.570389,90.460175 105.602409,94.358635 105.945480,98.585800 
	C105.209633,99.303246 104.433968,99.643448 103.145111,99.747231 
	C102.003700,99.299011 101.375465,99.087212 100.747238,98.875404 
z"/>
<path fill="#B73F05" opacity="1.000000" stroke="none" 
	d="
M86.094528,108.559380 
	C85.917900,108.927177 85.734612,108.946251 85.274963,108.972366 
	C84.994049,108.226280 84.989479,107.473167 84.977859,106.143707 
	C84.970795,105.567375 84.916794,105.171227 84.916794,105.171227 
	C84.916794,105.171227 84.940720,105.158981 84.949631,105.153252 
	C85.334991,106.168564 85.711433,107.189613 86.094528,108.559380 
z"/>
<path fill="#525651" opacity="1.000000" stroke="none" 
	d="
M88.129730,96.291443 
	C88.348259,96.845108 88.510872,97.803169 88.401268,98.953346 
	C88.110641,98.328918 88.092232,97.512375 88.129730,96.291443 
z"/>
<path fill="#C38C05" opacity="1.000000" stroke="none" 
	d="
M91.888733,88.274559 
	C91.701408,88.624191 91.190063,88.874542 90.378639,89.181259 
	C90.573944,88.883507 91.069336,88.529396 91.888733,88.274559 
z"/>
<path fill="#D3AC37" opacity="1.000000" stroke="none" 
	d="
M88.997696,85.001793 
	C89.120216,85.143745 89.245033,85.283905 89.369850,85.424057 
	C89.283409,85.374580 89.196968,85.325104 89.057007,85.135529 
	C89.003487,84.995430 89.000000,85.000000 88.997696,85.001793 
z"/>
<path fill="#CD350D" opacity="1.000000" stroke="none" 
	d="
M84.676132,105.142746 
	C84.916794,105.171227 84.970795,105.567375 84.975037,105.766815 
	C84.547554,105.831573 84.115829,105.696899 83.684113,105.562225 
	C83.934570,105.412903 84.185020,105.263580 84.676132,105.142746 
z"/>
<path fill="#414643" opacity="1.000000" stroke="none" 
	d="
M140.106705,102.099930 
	C134.440201,101.518707 134.109909,96.281303 131.896637,92.251068 
	C133.323914,91.237289 134.791000,90.607574 136.628357,89.918243 
	C138.337601,91.997841 139.676559,94.137047 141.086426,96.649750 
	C141.114594,98.115707 141.071838,99.208168 140.746140,100.813530 
	C140.228882,101.548599 140.091965,101.819954 140.052429,102.140480 
	C140.052429,102.140480 140.081848,102.071991 140.106705,102.099930 
z"/>
<path fill="#F0BE04" opacity="1.000000" stroke="none" 
	d="
M123.147385,104.579292 
	C122.521599,104.503609 121.789848,104.112541 120.983704,103.389465 
	C121.620010,103.459610 122.330727,103.861755 123.147385,104.579292 
z"/>
<path fill="#E1A001" opacity="1.000000" stroke="none" 
	d="
M98.065247,124.362579 
	C103.482948,120.462494 108.970055,116.923698 114.732643,113.185303 
	C115.008125,112.985695 115.503456,112.991692 115.751114,112.993866 
	C114.301361,115.183716 112.911415,117.746323 110.823845,119.458244 
	C108.535156,121.335121 108.700409,122.401695 110.863487,123.936287 
	C115.145470,126.974129 119.284958,130.350845 125.562164,129.005447 
	C126.004372,129.456070 126.001724,129.903046 125.996979,130.685760 
	C121.970329,131.344193 117.945793,131.666855 113.466644,131.982941 
	C111.695496,130.992279 110.501625,129.734604 109.038086,129.078339 
	C105.470146,127.478470 101.777245,126.157272 98.065247,124.362579 
z"/>
<path fill="#AB5A02" opacity="1.000000" stroke="none" 
	d="
M104.110832,150.940582 
	C103.306038,150.960236 102.801811,150.717239 102.128708,150.244781 
	C101.719307,148.898270 101.478790,147.781174 100.957993,146.037766 
	C98.781380,143.273895 96.885040,141.136353 94.835327,138.689056 
	C90.809258,136.234909 86.936546,134.090515 83.063843,131.946106 
	C83.063843,131.946106 83.042206,131.466248 83.024078,131.226608 
	C83.183105,130.425598 83.360260,129.864243 83.778580,129.120789 
	C85.405869,128.947098 86.791992,128.955475 88.750565,129.222000 
	C89.884171,129.638367 90.445328,129.796600 91.006477,129.954834 
	C92.766144,130.624557 94.525810,131.294281 96.638153,132.245392 
	C96.990829,132.526779 96.998169,133.001831 96.998169,133.001831 
	C97.593643,134.371750 97.920952,135.961945 98.832779,137.072021 
	C102.110619,141.062469 105.202286,145.049866 104.110832,150.940582 
z"/>
<path fill="#B87402" opacity="1.000000" stroke="none" 
	d="
M97.373627,133.000092 
	C96.998169,133.001831 96.990829,132.526779 96.990990,132.289825 
	C97.964149,132.147995 98.937157,132.243134 99.955910,132.662415 
	C99.250801,132.990494 98.499947,132.994431 97.373627,133.000092 
z"/>
<path fill="#C37E02" opacity="1.000000" stroke="none" 
	d="
M90.972580,129.668121 
	C90.445328,129.796600 89.884171,129.638367 89.166901,129.223877 
	C89.653404,129.105530 90.296043,129.243469 90.972580,129.668121 
z"/>
<path fill="#CB8F03" opacity="1.000000" stroke="none" 
	d="
M93.997360,143.996033 
	C93.693192,144.755798 93.030434,145.573410 93.142174,146.266083 
	C93.959396,151.331894 91.415024,153.464447 86.386543,153.953735 
	C85.004028,148.623428 84.006767,143.249298 83.368431,137.499634 
	C85.589211,139.778442 86.113235,144.092896 91.322662,143.015823 
	C92.426491,143.360840 93.211929,143.678436 93.997360,143.996033 
z"/>
<path fill="#C37E02" opacity="1.000000" stroke="none" 
	d="
M91.004272,142.988403 
	C86.113235,144.092896 85.589211,139.778442 83.375107,137.053558 
	C83.018837,135.584885 83.014832,134.186768 83.037338,132.367371 
	C86.936546,134.090515 90.809258,136.234909 94.439102,138.691895 
	C91.028687,138.647034 90.851837,140.685806 91.004272,142.988403 
z"/>
<path fill="#D19801" opacity="1.000000" stroke="none" 
	d="
M129.220154,168.899277 
	C128.679993,168.909134 128.416763,168.722443 128.101959,168.233063 
	C128.564697,167.861206 129.139069,167.707428 129.860382,167.781830 
	C129.898285,168.328552 129.708206,168.587677 129.220154,168.899277 
z"/>
<path fill="#362F26" opacity="1.000000" stroke="none" 
	d="
M140.294006,102.059959 
	C140.091965,101.819954 140.228882,101.548599 140.666260,101.217300 
	C140.758102,101.398590 140.646851,101.689018 140.294006,102.059959 
z"/>
<path fill="#B55F02" opacity="1.000000" stroke="none" 
	d="
M133.553757,141.999832 
	C132.519852,144.285126 131.145935,146.624084 129.429520,149.016006 
	C130.462601,146.730484 131.838181,144.391998 133.553757,141.999832 
z"/>
<path fill="#B55F02" opacity="1.000000" stroke="none" 
	d="
M128.818390,149.164566 
	C128.969299,149.393616 128.796158,149.659180 128.327454,149.994446 
	C128.278290,149.836639 128.432419,149.548950 128.818390,149.164566 
z"/>
<path fill="#DD9403" opacity="1.000000" stroke="none" 
	d="
M133.144592,130.269409 
	C133.572220,129.896378 134.149002,129.740555 134.865768,129.824402 
	C134.435074,130.204926 133.864426,130.345764 133.144592,130.269409 
z"/>
<path fill="#E5AE01" opacity="1.000000" stroke="none" 
	d="
M135.726776,148.217010 
	C135.878036,152.982330 135.734299,157.958923 135.278839,162.970795 
	C131.066254,159.731308 133.261261,155.669022 133.663742,151.907791 
	C133.793137,150.698761 134.817108,149.585434 135.726776,148.217010 
z"/>
<path fill="#D08001" opacity="1.000000" stroke="none" 
	d="
M91.322662,143.015823 
	C90.851837,140.685806 91.028687,138.647034 94.592476,139.001648 
	C96.885040,141.136353 98.781380,143.273895 100.800079,145.726074 
	C98.814735,145.276810 96.707031,144.512924 94.298347,143.872528 
	C93.211929,143.678436 92.426491,143.360840 91.322662,143.015823 
z"/>
<path fill="#CD9C0C" opacity="1.000000" stroke="none" 
	d="
M104.966911,111.003235 
	C104.172409,110.750427 103.377899,110.497620 102.291588,109.808838 
	C102.370392,108.961258 102.988449,108.143661 103.075768,108.196877 
	C105.940498,109.942802 105.971420,107.982483 106.387604,105.965553 
	C109.174904,104.951187 111.584488,103.981102 113.994072,103.011017 
	C114.090210,102.686478 114.267357,102.414780 114.726318,102.053894 
	C115.653793,104.876320 116.380470,107.840744 117.155685,111.003220 
	C117.305061,111.003220 116.492805,111.003220 115.345764,111.003662 
	C112.246872,111.360474 109.482765,111.716835 106.244904,111.809494 
	C105.568649,111.267754 105.300568,111.086906 104.966911,111.003235 
z"/>
<path fill="#CF9E09" opacity="1.000000" stroke="none" 
	d="
M100.494827,99.082352 
	C101.375465,99.087212 102.003700,99.299011 102.827377,99.784302 
	C103.563683,101.203545 104.104530,102.349304 104.822113,103.991821 
	C104.998718,104.658562 104.998596,104.828522 104.556000,105.000626 
	C101.763908,105.022789 99.414284,105.042809 97.064667,105.062828 
	C96.252869,104.703056 95.441071,104.343285 94.275925,103.952057 
	C96.029182,102.376839 98.135796,100.833069 100.494827,99.082352 
z"/>
<path fill="#C38C05" opacity="1.000000" stroke="none" 
	d="
M104.998474,104.998474 
	C104.998596,104.828522 104.998718,104.658562 105.000282,104.233429 
	C107.717720,103.656281 110.433723,103.334297 113.571899,103.011665 
	C111.584488,103.981102 109.174904,104.951187 106.380821,105.958801 
	C105.996330,105.996315 105.984650,105.984634 105.878052,105.769730 
	C105.574791,105.287292 105.318298,105.103004 105.000992,105.000977 
	C105.000000,105.000000 104.998474,104.998474 104.998474,104.998474 
z"/>
<path fill="#C38C05" opacity="1.000000" stroke="none" 
	d="
M97.041550,105.441154 
	C99.414284,105.042809 101.763908,105.022789 104.556000,105.000626 
	C104.998474,104.998474 105.000000,105.000000 105.108017,105.215897 
	C105.412262,105.699455 105.668465,105.883736 105.984650,105.984634 
	C105.984650,105.984634 105.996330,105.996315 106.003113,106.003067 
	C105.971420,107.982483 105.940498,109.942802 103.075768,108.196877 
	C102.988449,108.143661 102.370392,108.961258 101.999832,109.683441 
	C101.900299,110.315613 101.714119,110.575073 101.075150,110.654877 
	C100.137733,110.686516 99.566521,110.835663 98.995308,110.984810 
	C93.772964,111.009529 97.351089,107.666138 97.041550,105.441154 
z"/>
<path fill="#CF9E09" opacity="1.000000" stroke="none" 
	d="
M99.140488,111.213943 
	C99.566521,110.835663 100.137733,110.686516 100.856522,110.760635 
	C100.431297,111.136963 99.858482,111.290024 99.140488,111.213943 
z"/>
<path fill="#CF9E09" opacity="1.000000" stroke="none" 
	d="
M91.075394,103.987595 
	C91.677597,103.703102 92.443047,103.717873 93.582962,103.807457 
	C93.051170,104.017136 92.144905,104.152000 91.075394,103.987595 
z"/>
<path fill="#C38C05" opacity="1.000000" stroke="none" 
	d="
M105.079651,111.221146 
	C105.300568,111.086906 105.568649,111.267754 105.878830,111.766907 
	C105.658852,111.896149 105.394142,111.713150 105.079651,111.221146 
z"/>
<path fill="#CF9E09" opacity="1.000000" stroke="none" 
	d="
M105.878052,105.769730 
	C105.668465,105.883736 105.412262,105.699455 105.109009,105.216873 
	C105.318298,105.103004 105.574791,105.287292 105.878052,105.769730 
z"/>
</svg>